<svg width="388" height="355" viewBox="0 0 388 355" fill="none" xmlns="http://www.w3.org/2000/svg">
<path d="M367.485 172.62C399.242 234.538 294.786 209.906 230.902 242.672C167.017 275.438 127.594 391.846 95.8368 329.927C64.0793 268.008 17.9765 133.851 81.8609 101.085C145.745 68.3193 320.251 80.5262 367.485 172.62Z" fill="#5FD3D0" fill-opacity="0.27"/>
<path d="M363.813 212.918C380.403 280.5 284.466 232.396 214.739 249.513C145.012 266.63 79.7566 370.778 63.1666 303.196C46.5766 235.615 32.7223 94.435 102.449 77.3183C172.176 60.2017 339.138 112.402 363.813 212.918Z" fill="#5FD3D0" fill-opacity="0.27"/>
<path d="M156.721 213.332L157.533 213.795C157.88 213.564 158.228 213.216 158.576 212.984L195.09 191.887C198.683 189.801 204.943 190.033 209 192.467L220.012 198.842C220.939 199.306 221.635 199.885 222.098 200.465L222.91 200.001C222.91 200.001 224.533 202.32 223.026 204.87C222.678 205.565 221.982 206.261 221.055 206.84L184.425 227.937C180.832 230.024 174.572 229.792 170.515 227.358L159.503 220.982C158.228 220.171 157.185 219.36 156.721 218.432C155.098 215.65 156.721 213.332 156.721 213.332Z" fill="#FF7469"/>
<path d="M184.657 226.546L221.171 205.449C224.764 203.363 224.301 199.77 220.128 197.335L209.116 190.96C204.943 188.642 198.683 188.294 195.206 190.38L158.692 211.477C155.098 213.564 155.562 217.157 159.735 219.591L170.747 225.967C174.804 228.285 181.064 228.633 184.657 226.546Z" fill="#FF8E88"/>
<path d="M212.362 201.74C214.564 201.74 216.303 200.813 216.303 199.654V202.436C216.303 203.595 214.564 204.522 212.362 204.522C210.159 204.522 208.42 203.595 208.42 202.436V199.654C208.42 200.813 210.275 201.74 212.362 201.74Z" fill="#4688E8"/>
<path d="M212.362 197.567C214.564 197.567 216.303 198.494 216.303 199.654C216.303 200.813 214.564 201.74 212.362 201.74C210.159 201.74 208.42 200.813 208.42 199.654C208.42 198.494 210.275 197.567 212.362 197.567Z" fill="#73ACFF"/>
<path opacity="0.5" d="M212.361 202.204C215.375 202.204 217.81 200.929 217.81 199.306V203.131C217.81 204.754 215.375 206.029 212.361 206.029C209.348 206.029 206.913 204.754 206.913 203.131V199.306C206.913 200.929 209.348 202.204 212.361 202.204Z" fill="#E6F3FF"/>
<path opacity="0.5" d="M212.361 196.408C215.375 196.408 217.81 197.683 217.81 199.306C217.81 200.929 215.375 202.204 212.361 202.204C209.348 202.204 206.913 200.929 206.913 199.306C206.913 197.683 209.348 196.408 212.361 196.408Z" fill="white"/>
<path d="M201.465 195.365C203.668 195.365 205.407 194.437 205.407 193.278V196.06C205.407 197.219 203.668 198.147 201.465 198.147C199.263 198.147 197.524 197.219 197.524 196.06V193.278C197.524 194.437 199.263 195.365 201.465 195.365Z" fill="#4688E8"/>
<path d="M201.466 191.192C203.668 191.192 205.407 192.119 205.407 193.278C205.407 194.437 203.668 195.365 201.466 195.365C199.263 195.365 197.524 194.437 197.524 193.278C197.524 192.119 199.263 191.192 201.466 191.192Z" fill="#73ACFF"/>
<path opacity="0.5" d="M201.465 195.828C204.479 195.828 206.913 194.553 206.913 192.93V196.756C206.913 198.379 204.479 199.654 201.465 199.654C198.451 199.654 196.017 198.379 196.017 196.756V192.93C196.017 194.553 198.451 195.828 201.465 195.828Z" fill="#E6F3FF"/>
<path opacity="0.5" d="M201.465 190.033C204.479 190.033 206.913 191.308 206.913 192.93C206.913 194.553 204.479 195.828 201.465 195.828C198.451 195.828 196.017 194.553 196.017 192.93C196.017 191.308 198.451 190.033 201.465 190.033Z" fill="white"/>
<path d="M200.886 208.232C203.088 208.232 204.827 207.304 204.827 206.145V208.927C204.827 210.086 203.088 211.014 200.886 211.014C198.683 211.014 196.945 210.086 196.945 208.927V206.145C196.945 207.304 198.683 208.232 200.886 208.232Z" fill="#4688E8"/>
<path d="M200.886 204.058C203.088 204.058 204.827 204.986 204.827 206.145C204.827 207.304 203.088 208.231 200.886 208.231C198.684 208.231 196.945 207.304 196.945 206.145C196.945 204.986 198.684 204.058 200.886 204.058Z" fill="#73ACFF"/>
<path opacity="0.5" d="M200.886 208.695C203.899 208.695 206.334 207.42 206.334 205.797V209.623C206.334 211.245 203.899 212.52 200.886 212.52C197.872 212.52 195.438 211.245 195.438 209.623V205.797C195.438 207.42 197.872 208.695 200.886 208.695Z" fill="#E6F3FF"/>
<path opacity="0.5" d="M200.886 202.899C203.899 202.899 206.334 204.174 206.334 205.797C206.334 207.42 203.899 208.695 200.886 208.695C197.872 208.695 195.438 207.42 195.438 205.797C195.438 204.174 197.872 202.899 200.886 202.899Z" fill="white"/>
<path d="M189.874 201.856C192.076 201.856 193.815 200.929 193.815 199.77V202.552C193.815 203.711 192.076 204.638 189.874 204.638C187.671 204.638 185.932 203.711 185.932 202.552V199.77C185.932 200.929 187.787 201.856 189.874 201.856Z" fill="#4688E8"/>
<path d="M189.874 197.683C192.076 197.683 193.815 198.61 193.815 199.77C193.815 200.929 192.076 201.856 189.874 201.856C187.671 201.856 185.932 200.929 185.932 199.77C185.932 198.61 187.787 197.683 189.874 197.683Z" fill="#73ACFF"/>
<path opacity="0.5" d="M189.873 202.32C192.887 202.32 195.322 201.045 195.322 199.422V203.247C195.322 204.87 192.887 206.145 189.873 206.145C186.86 206.145 184.425 204.87 184.425 203.247V199.422C184.425 201.045 186.86 202.32 189.873 202.32Z" fill="#E6F3FF"/>
<path opacity="0.5" d="M189.873 196.524C192.887 196.524 195.322 197.799 195.322 199.422C195.322 201.045 192.887 202.32 189.873 202.32C186.86 202.32 184.425 201.045 184.425 199.422C184.425 197.799 186.86 196.524 189.873 196.524Z" fill="white"/>
<path d="M189.294 214.723C191.496 214.723 193.235 213.795 193.235 212.636V215.418C193.235 216.578 191.496 217.505 189.294 217.505C187.091 217.505 185.353 216.578 185.353 215.418V212.636C185.353 213.795 187.091 214.723 189.294 214.723Z" fill="#4688E8"/>
<path d="M189.294 210.55C191.496 210.55 193.235 211.477 193.235 212.636C193.235 213.795 191.496 214.723 189.294 214.723C187.091 214.723 185.353 213.795 185.353 212.636C185.353 211.477 187.091 210.55 189.294 210.55Z" fill="#73ACFF"/>
<path opacity="0.5" d="M189.294 215.186C192.307 215.186 194.742 213.911 194.742 212.289V216.114C194.742 217.737 192.307 219.012 189.294 219.012C186.28 219.012 183.845 217.737 183.845 216.114V212.289C183.845 213.911 186.28 215.186 189.294 215.186Z" fill="#E6F3FF"/>
<path opacity="0.5" d="M189.294 209.391C192.307 209.391 194.742 210.666 194.742 212.289C194.742 213.911 192.307 215.186 189.294 215.186C186.28 215.186 183.845 213.911 183.845 212.289C183.845 210.666 186.28 209.391 189.294 209.391Z" fill="white"/>
<path d="M178.398 208.347C180.6 208.347 182.339 207.42 182.339 206.261V209.043C182.339 210.202 180.6 211.129 178.398 211.129C176.195 211.129 174.457 210.202 174.457 209.043V206.261C174.457 207.42 176.195 208.347 178.398 208.347Z" fill="#4688E8"/>
<path d="M178.398 204.174C180.6 204.174 182.339 205.102 182.339 206.261C182.339 207.42 180.6 208.347 178.398 208.347C176.195 208.347 174.457 207.42 174.457 206.261C174.457 205.102 176.195 204.174 178.398 204.174Z" fill="#73ACFF"/>
<path opacity="0.5" d="M178.398 208.811C181.411 208.811 183.846 207.536 183.846 205.913V209.738C183.846 211.361 181.411 212.636 178.398 212.636C175.384 212.636 172.949 211.361 172.949 209.738V205.913C172.949 207.536 175.384 208.811 178.398 208.811Z" fill="#E6F3FF"/>
<path opacity="0.5" d="M178.398 203.015C181.411 203.015 183.846 204.29 183.846 205.913C183.846 207.536 181.411 208.811 178.398 208.811C175.384 208.811 172.949 207.536 172.949 205.913C172.949 204.29 175.384 203.015 178.398 203.015Z" fill="white"/>
<path d="M177.702 221.214C179.904 221.214 181.643 220.287 181.643 219.128V221.91C181.643 223.069 179.904 223.996 177.702 223.996C175.499 223.996 173.76 223.069 173.76 221.91V219.128C173.76 220.287 175.615 221.214 177.702 221.214Z" fill="#4688E8"/>
<path d="M177.702 217.041C179.904 217.041 181.643 217.969 181.643 219.128C181.643 220.287 179.904 221.214 177.702 221.214C175.499 221.214 173.76 220.287 173.76 219.128C173.76 217.969 175.615 217.041 177.702 217.041Z" fill="#73ACFF"/>
<path opacity="0.5" d="M177.702 221.678C180.716 221.678 183.15 220.403 183.15 218.78V222.605C183.15 224.228 180.716 225.503 177.702 225.503C174.688 225.503 172.254 224.228 172.254 222.605V218.78C172.254 220.403 174.688 221.678 177.702 221.678Z" fill="#E6F3FF"/>
<path opacity="0.5" d="M177.702 215.882C180.716 215.882 183.15 217.157 183.15 218.78C183.15 220.403 180.716 221.678 177.702 221.678C174.688 221.678 172.254 220.403 172.254 218.78C172.254 217.157 174.688 215.882 177.702 215.882Z" fill="white"/>
<path d="M166.806 214.839C169.008 214.839 170.747 213.911 170.747 212.752V215.534C170.747 216.693 169.008 217.621 166.806 217.621C164.604 217.621 162.865 216.693 162.865 215.534V212.752C162.865 213.911 164.604 214.839 166.806 214.839Z" fill="#4688E8"/>
<path d="M166.806 210.666C169.008 210.666 170.747 211.593 170.747 212.752C170.747 213.911 169.008 214.839 166.806 214.839C164.604 214.839 162.865 213.911 162.865 212.752C162.865 211.593 164.604 210.666 166.806 210.666Z" fill="#73ACFF"/>
<path opacity="0.5" d="M166.806 215.302C169.82 215.302 172.254 214.027 172.254 212.405V216.23C172.254 217.853 169.82 219.128 166.806 219.128C163.792 219.128 161.358 217.853 161.358 216.23V212.405C161.358 214.027 163.792 215.302 166.806 215.302Z" fill="#E6F3FF"/>
<path opacity="0.5" d="M166.806 209.507C169.82 209.507 172.254 210.782 172.254 212.405C172.254 214.027 169.82 215.302 166.806 215.302C163.792 215.302 161.358 214.027 161.358 212.405C161.358 210.782 163.792 209.507 166.806 209.507Z" fill="white"/>
<path d="M244.143 186.078L192.097 156.055L218.642 140.754L270.688 170.777L244.143 186.078Z" fill="#FF8E88"/>
<path d="M244.143 183.875L219.801 169.965L237.188 159.881L261.531 173.791L244.143 183.875Z" fill="#422C2A"/>
<path d="M264.081 172.4L216.208 144.811L218.526 143.536L266.4 171.24L264.081 172.4Z" fill="#422C2A"/>
<path d="M231.856 159.185L211.455 147.593L213.773 146.318L234.175 158.026L231.856 159.185Z" fill="#422C2A"/>
<path d="M227.104 161.851L206.702 150.144L209.021 148.984L229.422 160.576L227.104 161.851Z" fill="#422C2A"/>
<path d="M222.119 164.749L208.093 156.635L210.412 155.476L224.438 163.59L222.119 164.749Z" fill="white"/>
<path d="M217.367 167.299L203.341 159.185L205.659 158.026L219.685 166.14L217.367 167.299Z" fill="white"/>
<path d="M192.097 169.734V156.055L244.143 186.078V199.872L192.097 169.734Z" fill="#FF7469"/>
<path d="M194.299 168.69V159.881L241.941 187.353V196.278L194.299 168.69Z" fill="#422C2A"/>
<path d="M270.688 184.455V170.777L244.143 186.078V199.872L270.688 184.455Z" fill="#FF5E4C"/>
<path d="M254.112 182.716L245.882 187.469V196.278L254.112 191.526V182.716Z" fill="#422C2A"/>
<path d="M256.083 181.557V190.367L268.254 183.296V174.486L256.083 181.557Z" fill="#422C2A"/>
<path d="M243.1 168.458C242.752 166.372 241.709 164.749 240.434 164.285V163.938L239.391 164.053C237.768 164.285 236.725 166.72 237.188 169.386C237.652 171.936 239.275 173.906 240.898 173.675L242.057 173.443V173.095C242.984 172.399 243.448 170.545 243.1 168.458Z" fill="#BBD9F9"/>
<path d="M238.231 169.27C237.768 166.604 238.811 164.285 240.434 163.938C242.057 163.706 243.796 165.676 244.259 168.227C244.723 170.777 243.68 173.211 242.057 173.559C240.318 173.906 238.579 171.936 238.231 169.27Z" fill="#D9EAFE"/>
<path d="M235.102 173.906C235.334 172.863 235.218 171.472 234.754 170.081C234.29 168.69 233.479 167.531 232.784 166.835L232.436 165.792L231.045 166.255C229.77 166.719 229.538 169.037 230.349 171.588C231.161 174.138 232.899 175.877 234.175 175.413L235.566 174.949L235.102 173.906Z" fill="#D9EAFE"/>
<path d="M231.624 171.125C232.436 173.675 234.175 175.413 235.45 174.95C236.725 174.486 236.957 172.168 236.145 169.618C235.334 167.067 233.595 165.329 232.32 165.792C231.045 166.256 230.813 168.574 231.624 171.125Z" fill="white"/>
<path d="M250.403 174.138C249.476 173.559 248.085 173.211 246.578 173.211C244.839 173.211 243.448 173.675 242.521 174.254H241.709V175.529C241.709 176.804 243.912 177.848 246.578 177.848C249.244 177.848 251.446 176.804 251.446 175.529V174.022L250.403 174.138Z" fill="#D9EAFE"/>
<path d="M246.578 176.457C243.912 176.457 241.709 175.413 241.709 174.022C241.709 172.747 243.912 171.588 246.578 171.588C249.244 171.588 251.446 172.631 251.446 174.022C251.446 175.413 249.244 176.457 246.578 176.457Z" fill="white"/>
<path d="M139.056 75.8713V139.81C139.056 147.826 151.374 154.474 166.43 154.474C181.486 154.474 193.804 148.022 193.804 139.81V75.8713H139.056Z" fill="#FF7469"/>
<path d="M190.676 137.072C190.676 136.877 190.285 136.877 190.089 137.072C189.503 138.441 189.307 140.005 188.525 141.374C187.938 142.743 186.961 143.72 186.374 145.089C186.179 145.285 186.57 145.48 186.765 145.48C189.698 144.111 191.262 140.005 190.676 137.072Z" fill="#FF5E4C"/>
<path d="M189.111 124.754C188.72 124.167 188.134 123.581 187.742 122.994C187.156 122.408 186.765 121.625 186.569 120.843C186.374 120.257 185.396 120.452 185.592 121.039C186.178 122.603 186.96 124.558 188.72 125.341C189.111 125.536 189.307 125.145 189.111 124.754Z" fill="#FF5E4C"/>
<path d="M180.508 145.48C179.139 146.067 177.966 146.849 176.597 147.435C174.838 148.217 173.078 148.609 170.927 148.609C170.536 148.609 170.536 149.195 170.927 149.195C174.251 150.564 178.748 148.609 180.899 146.262C181.29 145.871 180.899 145.285 180.508 145.48Z" fill="#FF5E4C"/>
<path d="M190.676 85.0613C189.307 86.0389 188.329 87.2121 186.961 87.9942C185.396 88.9719 183.832 89.3629 182.072 89.9495C181.681 90.1451 181.681 90.9272 182.268 90.9272C185.396 90.9272 189.894 88.1898 190.871 85.2568C190.871 85.2568 190.871 85.0613 190.676 85.0613Z" fill="#FF5E4C"/>
<path d="M191.066 93.2736C190.284 92.4914 189.502 91.5138 188.524 91.1227C188.133 90.9272 187.938 91.3183 188.133 91.7093C188.72 92.4915 189.502 93.2736 190.284 94.0557C190.871 94.8378 191.457 95.8155 192.239 96.4021C192.435 96.5976 192.826 96.4021 192.826 96.011C192.435 94.8378 191.848 94.0557 191.066 93.2736Z" fill="#FF5E4C"/>
<path d="M191.262 111.262C190.284 113.413 189.111 115.173 188.329 117.324C188.134 117.715 188.72 118.106 188.916 117.715C190.48 115.955 190.871 113.609 191.653 111.458C191.849 111.067 191.458 110.871 191.262 111.262Z" fill="#FF5E4C"/>
<path d="M191.262 125.145C190.871 126.123 190.089 127.1 189.307 127.882C188.525 128.469 187.351 129.056 186.765 130.033C186.569 130.424 186.96 130.815 187.351 130.815C188.525 130.62 189.698 129.251 190.284 128.469C191.067 127.491 191.458 126.318 191.262 125.145C191.458 125.145 191.262 125.145 191.262 125.145Z" fill="#FF5E4C"/>
<path d="M189.307 101.486C188.916 100.899 188.329 100.313 187.743 99.9216C187.547 99.7261 187.156 99.9216 187.352 100.313C187.547 101.095 188.134 101.486 188.525 102.268C188.916 102.855 189.307 103.637 189.894 104.223C190.285 104.614 190.676 104.223 190.676 103.832C190.285 102.855 189.698 102.072 189.307 101.486Z" fill="#FF5E4C"/>
<path d="M183.05 98.1619C178.358 100.117 172.687 101.095 166.626 101.095C151.57 101.095 139.252 94.6423 139.252 86.4301V129.251C139.252 137.268 151.57 143.916 166.626 143.916C172.883 143.916 178.553 142.743 183.05 140.983V98.1619Z" fill="white"/>
<path d="M176.989 108.329C173.665 109.112 170.145 109.503 166.43 109.503C151.374 109.503 139.056 103.05 139.056 94.8378V99.7261C139.056 107.743 151.374 114.391 166.43 114.391C170.145 114.391 173.665 114 176.989 113.218V108.329Z" fill="#422C2A"/>
<path d="M192.827 71.5698C192.827 71.5698 192.631 70.9832 192.045 70.3966C191.849 70.2011 191.849 70.0056 191.654 69.81C189.698 67.0726 185.006 62.1843 175.816 59.6424C172.687 58.6648 170.732 59.6425 169.754 61.2067C168.777 61.2067 167.799 61.0112 166.626 61.0112C165.453 61.0112 164.475 61.2067 163.497 61.2067C162.52 59.4469 160.76 58.6648 157.436 59.6424C147.855 62.3799 142.967 67.6592 141.207 70.2011C140.62 71.1787 139.252 74.3072 139.252 75.6759C139.252 83.6926 151.57 90.3407 166.626 90.3407C181.682 90.3407 194 83.8882 194 75.6759C194 74.3072 193.414 72.9385 192.827 71.5698Z" fill="#FF8E88"/>
<path opacity="0.5" d="M166.039 58.4693C154.307 58.4693 144.922 63.5531 144.922 69.8101C144.922 76.067 154.503 81.1508 166.039 81.1508C177.771 81.1508 187.156 76.067 187.156 69.8101C187.352 63.5531 177.771 58.4693 166.039 58.4693Z" fill="#FFBEBB"/>
<path d="M165.648 57.6871C159.391 57.6871 154.307 60.4246 154.307 63.7486C154.307 67.0726 159.391 69.81 165.648 69.81C171.905 69.81 176.989 67.0726 176.989 63.7486C176.989 60.4246 171.905 57.6871 165.648 57.6871Z" fill="#FFBEBB"/>
<path d="M153.917 50.257V59.838C153.917 61.0112 154.699 61.9888 155.676 62.7709V55.5363C155.676 55.1453 155.872 54.9497 156.263 55.1453C156.654 55.3408 156.849 55.9274 156.849 56.3184V63.9441C157.827 64.5307 159 64.9218 160.369 65.3128V57.8827C160.369 57.4916 160.76 57.1006 161.151 57.1006C161.542 57.1006 161.933 57.4916 161.933 57.8827V65.7039C162.911 65.8994 164.084 66.095 165.257 66.095V58.4693C165.257 58.0782 165.648 57.6872 166.039 57.6872C166.43 57.6872 166.822 58.0782 166.822 58.4693V66.095C167.995 66.095 169.168 65.8994 170.341 65.7039V57.6872C170.341 57.2961 170.732 56.905 171.123 56.905C171.514 56.905 171.905 57.2961 171.905 57.6872V65.1173C173.078 64.7262 173.861 64.3352 174.838 63.7486V56.3184C174.838 55.9274 175.034 55.3408 175.425 55.1453C175.816 54.9497 176.011 55.1453 176.011 55.5363V62.7709C176.794 61.9888 177.576 61.0112 177.576 59.838V50.257H153.917Z" fill="#5B3938"/>
<path d="M165.844 57.4916C165.453 57.4916 165.062 57.8826 165.062 58.2737V65.8994C165.257 65.8994 165.257 65.8994 165.453 65.8994C165.844 65.8994 166.235 65.8994 166.43 65.7039V58.0782C166.626 57.6871 166.235 57.4916 165.844 57.4916Z" fill="#422C2A"/>
<path d="M160.956 56.9051C160.565 56.9051 160.174 57.2961 160.174 57.6872V65.1173C160.565 65.3129 161.151 65.3129 161.542 65.5084V57.6872C161.738 57.2961 161.347 56.9051 160.956 56.9051Z" fill="#422C2A"/>
<path d="M170.732 56.7095C170.341 56.7095 169.95 57.1005 169.95 57.4916V65.5083C170.537 65.3128 170.928 65.1173 171.319 64.9217V57.4916C171.514 56.905 171.123 56.7095 170.732 56.7095Z" fill="#422C2A"/>
<path d="M174.838 54.9498C174.447 55.1453 174.252 55.7319 174.252 56.1229V63.5531C174.643 63.162 175.229 62.9665 175.425 62.5754V55.3408C175.425 54.9497 175.229 54.7542 174.838 54.9498Z" fill="#422C2A"/>
<path d="M156.263 54.9498C155.872 54.7542 155.676 54.9497 155.676 55.3408V62.5754C156.067 62.9665 156.458 63.162 156.849 63.5531V55.9274C156.849 55.7319 156.654 55.1453 156.263 54.9498Z" fill="#422C2A"/>
<path d="M165.453 44C159 44 153.917 46.7374 153.917 50.0614C153.917 53.3855 159 56.1229 165.453 56.1229C171.905 56.1229 176.989 53.3855 176.989 50.0614C176.989 46.7374 171.905 44 165.453 44Z" fill="#634544"/>
<path d="M165.648 53.3855C170.4 53.3855 174.252 51.2844 174.252 48.6927C174.252 46.101 170.4 44 165.648 44C160.897 44 157.045 46.101 157.045 48.6927C157.045 51.2844 160.897 53.3855 165.648 53.3855Z" fill="#775757"/>
<path d="M151.961 119.475C148.246 117.715 144.531 117.715 142.38 119.084L141.793 118.888L141.011 120.648C139.643 123.581 142.38 127.687 147.073 130.033C151.57 132.184 156.458 131.598 158.022 128.86L159 126.905L158.413 126.709C158.022 124.167 155.481 121.235 151.961 119.475Z" fill="#4E8DEA"/>
<path d="M147.855 128.273C143.162 126.123 140.425 121.821 141.794 118.888C143.162 115.955 148.05 115.369 152.743 117.519C157.436 119.67 160.173 123.972 158.805 126.905C157.436 129.838 152.548 130.424 147.855 128.273Z" fill="#619BF7"/>
<path d="M173.274 123.19C170.928 122.799 167.604 123.385 164.28 124.949C160.76 126.514 158.023 128.86 156.85 131.011L155.09 131.793L156.459 134.53C157.632 137.268 163.302 137.268 168.972 134.726C174.643 132.184 178.162 127.882 176.794 125.145L175.425 122.016L173.274 123.19Z" fill="#619BF7"/>
<path d="M167.408 131.793C161.737 134.335 156.263 134.335 154.894 131.597C153.525 128.86 157.045 124.558 162.715 122.016C168.385 119.475 173.86 119.475 175.229 122.212C176.598 124.754 173.078 129.056 167.408 131.793Z" fill="#73ACFF"/>
<path d="M147.855 64.9218C145.313 66.8771 143.357 70.3966 142.771 72.1564C141.989 73.9162 141.011 77.8268 142.575 79.5865C143.749 81.1508 145.313 79.9776 146.095 78.6089C146.877 77.0446 146.29 73.9162 146.877 72.1564C147.464 70.0056 148.832 67.8547 150.005 65.8994C150.201 64.9218 149.419 63.7486 147.855 64.9218Z" fill="white"/>
<path d="M108.749 159.95C99.9497 159.95 92.7151 163.665 92.7151 168.358C92.7151 173.05 99.7542 176.765 108.749 176.765C117.547 176.765 124.782 173.05 124.782 168.358C124.782 163.86 117.547 159.95 108.749 159.95Z" fill="#337CD3"/>
<path d="M89.1958 120.453V163.274C89.1958 169.14 97.9947 173.832 108.944 173.832C119.894 173.832 128.693 169.14 128.693 163.274V120.453H89.1958Z" fill="#4688E8"/>
<path d="M108.749 139.028C97.7989 139.028 89 134.335 89 128.469V153.497C89 159.363 97.7989 164.056 108.749 164.056C119.698 164.056 128.497 159.363 128.497 153.497V128.469C128.497 134.335 119.698 139.028 108.749 139.028Z" fill="white"/>
<path d="M124.195 139.224C120.676 141.765 115.006 143.33 108.749 143.33C102.101 143.33 96.4302 141.57 92.7151 139.028V142.939C96.2346 145.481 102.101 147.24 108.749 147.24C115.006 147.24 120.676 145.676 124.195 143.134V139.224Z" fill="#422C2A"/>
<path d="M124.195 145.676C120.676 148.218 115.006 149.782 108.749 149.782C102.101 149.782 96.4302 148.022 92.7151 145.48V157.017C96.2346 159.559 102.101 161.318 108.749 161.318C115.006 161.318 120.676 159.754 124.195 157.212V145.676Z" fill="#634544"/>
<path d="M128.497 120.062C128.497 114.391 121.262 108.916 121.262 108.916L118.721 111.458C115.788 110.481 112.464 109.894 108.749 109.894C105.033 109.894 101.709 110.481 98.7765 111.458L96.2346 108.916C96.2346 108.916 89 114.391 89 120.062V120.453C89 126.319 97.7989 131.011 108.749 131.011C119.698 131.011 128.497 126.319 128.497 120.453V120.062Z" fill="#619BF7"/>
<path d="M108.748 105.006C100.732 105.006 94.2791 108.525 94.2791 112.631C94.2791 116.933 100.732 120.257 108.748 120.257C116.765 120.257 123.217 116.738 123.217 112.631C123.413 108.525 116.765 105.006 108.748 105.006Z" fill="#73ACFF"/>
<path d="M108.748 105.006C103.274 105.006 98.7764 107.352 98.7764 110.285C98.7764 113.218 103.274 115.564 108.748 115.564C114.223 115.564 118.72 113.218 118.72 110.285C118.916 107.548 114.419 105.006 108.748 105.006Z" fill="#619BF7"/>
<path d="M96.6257 93.8606V104.028C96.6257 105.201 97.4079 106.375 98.3855 107.157V99.3354C98.3855 98.9444 98.7766 98.5533 98.9721 98.7488C99.3632 98.9444 99.5587 99.531 99.5587 99.922V107.939C100.536 108.525 101.71 109.112 103.274 109.503V101.682C103.274 101.291 103.665 100.9 104.056 100.9C104.447 100.9 104.838 101.291 104.838 101.682V109.894C106.011 110.09 107.184 110.285 108.358 110.285V102.073C108.358 101.682 108.749 101.291 109.14 101.291C109.531 101.291 109.922 101.682 109.922 102.073V110.09C111.29 110.09 112.464 109.894 113.637 109.699V101.291C113.637 100.9 114.028 100.509 114.419 100.509C114.81 100.509 115.201 100.9 115.201 101.291V109.307C116.374 108.916 117.352 108.525 118.33 107.939V100.118C118.33 99.7265 118.721 99.1399 118.916 98.9444C119.307 98.7489 119.503 98.9444 119.503 99.531V107.157C120.48 106.179 121.067 105.201 121.067 104.028V93.8606H96.6257Z" fill="#5B3938"/>
<path d="M109.139 101.486C108.748 101.486 108.357 101.877 108.357 102.268V110.481C108.553 110.481 108.553 110.481 108.748 110.481C109.139 110.481 109.53 110.285 109.921 110.285V102.268C109.921 101.682 109.53 101.486 109.139 101.486Z" fill="#422C2A"/>
<path d="M104.056 100.9C103.665 100.9 103.273 101.291 103.273 101.682V109.503C103.86 109.698 104.251 109.698 104.838 109.894V101.682C104.838 101.291 104.447 100.9 104.056 100.9Z" fill="#422C2A"/>
<path d="M114.419 100.704C114.028 100.704 113.637 101.095 113.637 101.486V109.894C114.223 109.698 114.614 109.503 115.201 109.307V101.291C115.201 100.9 114.81 100.704 114.419 100.704Z" fill="#422C2A"/>
<path d="M118.916 98.7489C118.525 98.9444 118.329 99.531 118.329 99.9221V107.743C118.916 107.352 119.307 107.157 119.698 106.766V99.3355C119.503 98.7489 119.111 98.5533 118.916 98.7489Z" fill="#422C2A"/>
<path d="M98.9716 98.7489C98.5805 98.5533 98.385 98.7489 98.385 99.3355V107.157C98.7761 107.548 99.1671 107.939 99.7537 108.134V100.118C99.7537 99.531 99.3627 98.9444 98.9716 98.7489Z" fill="#422C2A"/>
<path d="M108.748 87.2125C101.905 87.2125 96.4299 90.1455 96.4299 93.665C96.4299 97.1846 101.905 100.117 108.748 100.117C115.592 100.117 121.067 97.1846 121.067 93.665C121.067 90.1455 115.592 87.2125 108.748 87.2125Z" fill="#634544"/>
<path d="M108.944 87.2125C103.861 87.2125 99.7544 89.3634 99.7544 92.1008C99.7544 94.8382 103.861 96.989 108.944 96.989C114.028 96.989 118.134 94.8382 118.134 92.1008C118.134 89.3634 114.028 87.2125 108.944 87.2125Z" fill="#775757"/>
<path d="M124.782 162.101C124.391 163.078 123.609 164.056 122.826 165.033C122.044 165.816 121.067 166.402 120.285 166.989C120.089 167.184 120.285 167.771 120.48 167.575C123.022 167.184 124.782 164.447 125.368 162.296C125.564 161.905 124.977 161.709 124.782 162.101Z" fill="#337CD3"/>
<path d="M126.737 127.296C126.151 127.883 125.369 128.665 124.587 129.252C124 129.838 123.022 130.034 122.436 130.62C122.24 130.816 122.436 131.207 122.631 131.207C123.609 131.207 124.587 130.425 125.173 129.838C125.955 129.252 126.542 128.469 126.933 127.492C127.128 127.296 126.933 127.101 126.737 127.296Z" fill="#337CD3"/>
<path d="M121.849 133.944C121.653 133.553 121.653 133.553 121.262 133.358C120.871 133.162 120.676 133.162 120.285 132.967C119.698 132.576 119.112 132.185 118.525 131.793C118.329 131.598 117.938 131.989 118.134 132.185C118.525 132.771 119.111 133.358 119.698 133.749C120.089 133.944 120.285 134.14 120.676 134.335C121.067 134.531 121.262 134.531 121.653 134.335C122.044 134.335 122.044 134.14 121.849 133.944Z" fill="#337CD3"/>
<path d="M120.089 169.335C119.502 168.944 118.916 168.749 118.329 168.357C117.743 167.966 117.156 167.38 116.57 166.989C116.374 166.793 116.178 166.989 116.178 167.184C116.765 168.748 118.329 170.117 120.089 169.922C120.285 169.922 120.285 169.531 120.089 169.335Z" fill="#337CD3"/>
<path d="M94.6703 112.24C93.3016 113.805 91.9329 116.151 91.3463 117.324C90.7597 118.497 89.9776 120.844 90.7597 122.017C91.5419 122.994 92.7151 122.212 93.1061 121.43C93.4972 120.257 93.6927 119.084 94.0838 117.911C94.4748 116.346 95.2569 114.196 95.648 112.631C95.8435 112.045 95.4525 111.458 94.6703 112.24Z" fill="white"/>
<path d="M134.363 175.201V178.916C134.363 179.894 134.754 180.676 135.927 181.458C138.273 183.218 142.771 183.413 145.704 181.849C147.463 181.067 148.245 179.894 148.441 178.916V175.201H134.363Z" fill="#FF5E4C"/>
<path d="M147.072 172.854C146.877 172.854 146.877 172.659 146.681 172.659L136.709 178.329C139.251 179.698 143.162 179.698 145.899 178.329C148.832 176.961 149.419 174.614 147.072 172.854Z" fill="#FF8E88"/>
<path d="M137.098 172.463C134.165 173.832 133.578 176.374 135.729 177.938L145.701 172.268C143.159 171.095 139.64 171.29 137.098 172.463Z" fill="#FF8E88"/>
<path d="M145.704 172.268L135.732 177.938C135.732 177.938 135.732 177.938 135.927 178.134C136.123 178.329 136.318 178.329 136.514 178.525L146.486 172.855C146.29 172.463 146.095 172.268 145.704 172.268Z" fill="#FF7469"/>
<path d="M136.709 178.72V178.329L135.732 177.938V178.329L136.709 178.72Z" fill="#FF7469"/>
<path d="M166.039 168.357V172.072C166.039 173.05 165.648 173.832 164.475 174.614C162.128 176.374 157.631 176.569 154.698 175.005C152.938 174.223 152.156 173.05 151.961 172.072V168.357H166.039Z" fill="#FF5E4C"/>
<path d="M153.525 165.815C153.721 165.815 153.72 165.62 153.916 165.62L163.888 171.29C161.346 172.659 157.436 172.659 154.698 171.29C151.57 170.117 151.179 167.575 153.525 165.815Z" fill="#FF8E88"/>
<path d="M163.301 165.424C166.234 166.793 166.821 169.335 164.67 170.899L154.698 165.229C157.24 164.251 160.759 164.251 163.301 165.424Z" fill="#FF8E88"/>
<path d="M154.698 165.229L164.67 170.899C164.67 170.899 164.67 170.899 164.475 171.095C164.279 171.29 164.084 171.29 163.888 171.486L153.916 165.815C154.112 165.424 154.503 165.424 154.698 165.229Z" fill="#FF7469"/>
<path d="M163.888 171.877V171.486L164.67 170.899V171.486L163.888 171.877Z" fill="#FF7469"/>
<path d="M168.972 185.173V188.888C168.972 189.866 168.581 190.648 167.407 191.43C165.061 193.19 160.564 193.385 157.631 191.821C155.871 191.039 155.089 189.866 154.894 188.888V185.173H168.972Z" fill="#FF5E4C"/>
<path d="M156.458 182.631C156.654 182.631 156.654 182.435 156.849 182.435L166.821 188.106C164.279 189.474 160.369 189.474 157.631 188.106C154.503 186.737 153.916 184.391 156.458 182.631Z" fill="#FF8E88"/>
<path d="M166.235 182.24C169.168 183.609 169.754 186.15 167.603 187.715L157.631 182.044C160.173 180.871 163.693 181.067 166.235 182.24Z" fill="#FF8E88"/>
<path d="M157.631 182.044L167.603 187.715C167.603 187.715 167.603 187.715 167.408 187.91C167.212 188.106 167.016 188.106 166.821 188.301L156.849 182.631C157.044 182.24 157.435 182.044 157.631 182.044Z" fill="#FF7469"/>
<path d="M166.821 188.692V188.106L167.603 187.715V188.106L166.821 188.692Z" fill="#FF7469"/>
</svg>
