<svg width="382" height="343" viewBox="0 0 382 343" fill="none" xmlns="http://www.w3.org/2000/svg">
<path d="M364.746 178.074C392.358 241.949 289.75 210.493 223.847 238.982C157.944 267.47 110.942 381.031 83.3305 317.155C55.7185 253.28 18.5484 116.378 84.4514 87.8897C150.355 59.4011 323.678 83.0706 364.746 178.074Z" fill="#5FD3D0" fill-opacity="0.27"/>
<path d="M359.135 215.448C372.298 283.779 278.907 230.902 208.406 244.483C137.905 258.064 67.4841 358.791 54.3211 290.459C41.158 222.128 34.4364 80.4291 104.937 66.8482C175.438 53.2673 339.557 113.816 359.135 215.448Z" fill="#5FD3D0" fill-opacity="0.27"/>
<path d="M229.283 158.575C229.283 158.575 233.928 154.674 248.231 158.575C262.535 162.476 264.021 166.377 264.021 166.377C264.021 166.377 256.033 130.71 248.231 127.552C240.615 124.58 229.283 158.575 229.283 158.575Z" fill="#E1F2FF"/>
<path d="M261.606 189.226C261.978 189.597 263.278 190.898 263.464 192.198C263.65 193.498 264.021 194.613 263.464 196.471C262.907 198.328 261.978 198.143 261.978 198.143C261.978 198.143 261.421 201.672 260.12 203.715C258.82 205.759 255.105 206.502 253.247 206.502C250.089 206.502 250.461 204.458 252.318 201.3C254.176 197.957 255.476 195.356 255.29 192.755C255.105 190.155 255.29 187.368 255.29 187.368L261.606 189.226Z" fill="#2C1D1B"/>
<path d="M236.714 175.294C236.714 175.294 237.457 176.78 238.386 178.266C239.315 179.752 238.943 180.309 238.943 182.353C238.943 184.396 235.414 185.139 235.414 185.139L234.485 184.582C234.485 184.582 234.113 185.696 231.141 187.368C228.169 189.04 224.639 189.226 223.153 188.483C221.667 187.74 220.924 187.368 223.711 184.582C226.683 181.795 229.655 177.894 229.655 177.894L236.714 175.294Z" fill="#2C1D1B"/>
<path d="M247.303 128.295C247.303 128.295 243.03 136.655 240.615 142.042C238.2 147.429 236.714 150.958 235.042 152.816C235.785 154.859 236.343 159.689 236.714 166.377C237.086 171.95 236.714 177.894 236.714 177.894C236.714 177.894 233.185 180.495 229.284 177.894C228.541 173.622 223.339 160.99 222.039 151.516C222.968 145.757 224.64 137.026 227.426 127.924C230.212 118.821 233.185 113.063 233.556 112.877C233.742 112.691 243.03 118.264 243.03 118.264L247.303 128.295Z" fill="#2C1D1B"/>
<path d="M256.963 117.707C256.963 117.707 259.749 122.351 260.306 128.667C260.864 134.983 260.678 137.955 259.749 145.943C259.006 151.516 257.52 159.318 257.52 159.318C257.52 159.318 261.978 168.049 262.721 176.408C263.464 184.768 262.721 190.155 262.721 190.155C262.721 190.155 261.792 192.012 260.121 192.384C257.706 192.941 255.476 191.455 255.476 191.455C255.476 191.455 249.718 168.792 246.746 164.334C244.702 157.46 242.659 150.03 242.473 145.757C242.287 141.299 242.102 134.24 242.102 134.24C242.102 134.24 236.343 130.153 239.315 118.264C241.73 106.561 256.963 117.707 256.963 117.707Z" fill="#422C2A"/>
<path d="M203.599 56.9197L218.431 68.709L201.094 90.5214L186.262 78.732L203.599 56.9197Z" fill="#73ACFF"/>
<path d="M209.287 62.7621L216.849 68.7734L208.063 79.825L200.501 73.8137L209.287 62.7621Z" fill="#619BF7"/>
<path d="M199.889 74.744L207.16 80.5231L206.582 81.2502L199.311 75.471L199.889 74.744Z" fill="#D2F2FF"/>
<path d="M199.027 75.9194L206.297 81.6995L205.719 82.4265L198.449 76.6465L199.027 75.9194Z" fill="#D2F2FF"/>
<path d="M198.061 77.2653L205.332 83.0444L204.754 83.7715L197.483 77.9923L198.061 77.2653Z" fill="#D2F2FF"/>
<path d="M196.939 78.4676L204.209 84.2476L203.631 84.9747L196.361 79.1947L196.939 78.4676Z" fill="#D2F2FF"/>
<path d="M195.966 79.7993L203.237 85.5793L202.659 86.3064L195.388 80.5264L195.966 79.7993Z" fill="#D2F2FF"/>
<path d="M195.114 81.0042L202.385 86.7833L201.807 87.5103L194.536 81.7312L195.114 81.0042Z" fill="#D2F2FF"/>
<path d="M193.992 82.2048L201.263 87.9848L200.685 88.7119L193.414 82.9318L193.992 82.2048Z" fill="#D2F2FF"/>
<path d="M194.668 70.4665L198.737 73.707L198.158 74.4336L194.09 71.1931L194.668 70.4665Z" fill="#619BF7"/>
<path d="M193.699 71.8064L197.768 75.0468L197.189 75.7733L193.12 72.5329L193.699 71.8064Z" fill="#619BF7"/>
<path d="M192.678 72.8578L196.747 76.0983L196.168 76.8249L192.099 73.5843L192.678 72.8578Z" fill="#619BF7"/>
<path d="M191.725 74.2041L195.793 77.4446L195.215 78.1712L191.146 74.9307L191.725 74.2041Z" fill="#619BF7"/>
<path d="M190.753 75.54L194.822 78.7805L194.243 79.507L190.174 76.2665L190.753 75.54Z" fill="#619BF7"/>
<path d="M189.628 76.7568L193.696 79.9973L193.118 80.7238L189.049 77.4833L189.628 76.7568Z" fill="#619BF7"/>
<path d="M188.66 78.0888L192.729 81.3293L192.15 82.0558L188.082 78.8154L188.66 78.0888Z" fill="#619BF7"/>
<path d="M204.011 58.5298L208.228 61.8823L199.443 72.9339L195.226 69.5815L204.011 58.5298Z" fill="#D2F2FF"/>
<path d="M209.964 90.028C210.336 90.3995 210.522 90.9568 210.893 91.3284C212.193 90.5853 213.494 90.028 214.423 88.9134C213.308 87.6131 212.008 86.127 211.45 84.2693C210.707 82.2259 210.522 80.5541 210.15 78.1391C209.964 77.3961 209.593 76.2815 209.035 77.3961C208.478 78.3249 208.85 80.3683 208.85 80.9256C208.292 81.4829 206.621 83.8978 205.506 85.3839C206.435 86.3127 208.107 87.4273 209.964 90.028Z" fill="#FFB9A4"/>
<path d="M237.271 76.0957C237.271 76.0957 235.228 75.3527 233.184 76.8388C229.655 79.2537 229.283 83.712 228.169 86.87C226.683 90.9568 224.082 94.4863 222.967 95.7867C217.58 92.0714 212.379 85.7555 212.379 85.7555C212.379 85.7555 211.079 87.7988 208.478 88.7277C209.592 91.1426 213.865 97.8301 215.908 100.059C218.138 102.66 220.367 104.518 222.039 106.747C223.896 105.818 225.568 104.703 227.054 103.775C229.283 102.288 231.141 101.36 232.07 99.8735C235.971 94.6721 237.271 76.0957 237.271 76.0957Z" fill="#E1F2FF"/>
<path d="M249.718 80.9256C248.231 80.3683 241.172 75.91 240.615 76.2815C236.343 78.3249 231.513 86.6843 230.955 92.2572C230.77 94.4864 231.141 100.617 232.627 104.332C231.141 106.561 232.442 108.419 232.442 108.976C232.627 110.091 232.07 113.992 231.513 114.92C230.584 116.964 229.841 118.45 230.77 119.193C232.813 121.236 238.014 124.023 244.702 125.137C251.761 126.252 256.405 121.979 258.634 119.193C259.191 118.45 258.263 114.92 256.777 113.806C257.891 110.276 259.191 105.818 260.306 101.545C261.978 95.0437 264.95 87.6131 259.563 84.8267C256.962 83.8979 253.061 82.0402 249.718 80.9256Z" fill="#53B7B7"/>
<path d="M241.73 117.707C238.943 116.778 235.042 115.478 235.042 115.478C235.042 115.478 238.386 118.636 240.987 119.193C243.587 119.75 247.674 119.193 247.674 119.193C247.674 119.193 244.702 118.45 241.73 117.707Z" fill="#41A5A2"/>
<path d="M235.228 110.462C235.228 110.462 238.758 111.019 240.801 111.577C242.844 112.134 246.745 113.992 246.745 113.992C246.745 113.992 242.844 113.434 240.429 113.063C237.829 112.505 235.228 110.462 235.228 110.462Z" fill="#41A5A2"/>
<path d="M252.504 80.3682C252.504 80.3682 246.559 102.474 246.374 111.019C246.188 119.564 247.674 131.453 249.717 140.741C251.761 150.03 253.99 159.875 254.362 166.563C254.733 173.622 253.99 177.894 253.99 177.894C253.99 177.894 261.235 177.708 265.693 175.293C271.266 172.321 272.566 168.049 272.566 168.049C272.566 168.049 268.108 139.255 266.065 131.825C262.721 119.75 259.749 117.521 260.863 112.134C262.349 105.632 263.836 88.3561 262.349 86.6842C260.863 85.0123 252.504 80.3682 252.504 80.3682Z" fill="white"/>
<path d="M235.971 77.0245C235.971 77.0245 232.256 80.7398 230.955 87.0558C229.469 93.929 230.77 97.087 230.212 104.332C229.841 109.347 228.54 114.92 226.497 121.236C224.639 126.623 222.224 134.611 220.553 146.129C219.066 155.974 219.995 164.519 219.995 164.519C219.995 164.519 220.367 168.606 223.339 170.092C225.568 171.207 228.355 170.649 228.355 170.649C228.355 170.649 227.797 166.005 227.054 158.946C226.497 153.002 228.912 142.042 231.141 129.967C233.37 118.45 235.414 105.818 235.785 101.731C236.157 93.3717 238.2 83.712 240.058 79.9967C242.287 76.2815 235.971 77.0245 235.971 77.0245Z" fill="white"/>
<path d="M248.974 72.9377C248.974 72.9377 243.773 79.9967 241.915 82.7832C240.058 85.7554 240.801 86.87 242.287 89.6564C246.56 87.0557 252.318 84.6408 252.875 82.0401C251.018 81.1113 248.974 72.9377 248.974 72.9377Z" fill="#FFB9A4"/>
<path d="M243.587 90.3995L244.145 93.186L241.544 95.0436C241.544 95.0436 240.801 102.474 241.358 107.304C241.73 112.134 242.287 116.221 242.287 116.221L238.386 119.936L235.971 114.549C235.971 114.549 236.528 107.49 237.457 102.474C238.386 97.2728 240.243 94.6721 240.243 94.6721L239.129 90.7711L242.101 89.0992L243.587 90.3995Z" fill="#422C2A"/>
<path d="M241.544 79.9967C241.544 79.9967 241.729 84.4551 241.915 86.3127C242.101 87.9846 243.216 89.2849 243.216 89.2849C243.216 89.2849 240.058 91.6998 238.014 92.6287C237.085 88.9134 235.785 83.712 237.643 81.6686C239.5 79.811 241.544 79.9967 241.544 79.9967Z" fill="#41A5A2"/>
<path d="M251.39 78.8822C251.39 78.8822 251.204 82.2259 247.303 85.7555C244.516 88.1704 241.916 89.0992 241.916 89.0992C241.916 89.0992 242.473 90.7711 243.402 92.2572C244.145 93.5575 245.445 95.0436 245.445 95.0436C245.445 95.0436 248.232 92.8145 250.275 90.3995C252.133 87.9846 253.433 82.0402 253.433 82.0402C253.433 82.0402 252.319 79.068 251.39 78.8822Z" fill="#41A5A2"/>
<path d="M238.943 76.6529C238.943 76.6529 236.528 79.4393 234.485 82.2258C231.884 85.9411 231.512 88.7275 231.512 88.7275L234.856 91.1425L231.698 93.3716C231.698 93.3716 231.698 98.2015 232.627 101.731C233.556 105.26 235.228 108.976 235.228 108.976C235.228 108.976 236.157 104.517 236.528 98.9445C236.9 94.3004 237.643 89.2848 238.571 86.3126C240.615 79.9966 241.544 78.6963 241.544 78.6963L238.943 76.6529Z" fill="#E1F2FF"/>
<path d="M235.6 72.009C235.785 69.594 236.157 66.436 238.2 64.5784C240.058 62.9065 243.402 62.7208 245.817 62.9065C249.532 63.0923 252.318 67.3649 251.575 72.1947C251.018 76.653 248.046 83.5263 243.03 84.4551C237.271 85.5697 235.414 75.91 235.6 72.009Z" fill="#FFC9B6"/>
<path d="M234.856 61.0489C235.971 61.2347 237.085 61.792 237.271 63.4638C241.915 59.0055 250.46 60.3059 252.875 65.693C253.433 66.9933 252.875 70.5229 252.69 71.8232C251.761 75.5385 251.575 77.0246 250.832 79.4395C248.974 78.1392 248.417 77.3961 247.674 76.2815C247.117 75.3527 245.816 73.4951 245.631 72.3805C243.959 73.6808 240.987 73.6808 239.315 73.3093C236.157 72.752 233.927 71.6374 233.184 68.6652C231.884 64.5784 232.627 60.8631 234.856 61.0489Z" fill="#3F2A28"/>
<path d="M246.374 75.1669C246.374 75.1669 247.674 72.5662 249.16 74.238C250.646 75.7241 248.603 78.3248 248.603 78.3248L246.374 75.1669Z" fill="#FFC9B6"/>
<path d="M251.204 82.5973C249.346 87.2414 246.188 95.0435 246.188 100.059C246.188 103.96 246.188 111.019 246.188 111.019C246.188 111.019 249.532 106.004 250.275 104.332C251.204 102.66 253.433 98.2015 253.433 98.2015L249.346 94.3004L254.548 92.8143C254.548 92.8143 256.405 85.0123 255.105 80.9255C254.362 77.9532 251.575 76.6529 251.575 76.6529L251.018 78.8821C251.018 78.8821 252.133 80.5539 251.204 82.5973Z" fill="#E1F2FF"/>
<path d="M249.346 118.821L248.603 119.75C248.603 119.75 245.073 120.865 243.216 121.422C241.358 122.165 238.943 123.094 237.085 124.766C235.228 126.252 234.485 127.924 237.271 128.295C240.058 128.667 242.101 127.924 243.401 127.738C246.002 127.181 247.117 125.137 248.788 124.208C249.532 123.837 253.061 122.722 253.061 122.722L249.346 118.821Z" fill="#FFB9A4"/>
<path d="M259.191 84.2693C259.191 84.2693 261.978 85.9412 264.021 87.6131C266.065 89.285 266.993 93.3718 267.736 96.5298C268.479 99.6877 267.365 107.676 267.736 112.505C265.693 114.735 260.677 119.379 258.448 121.051C254.919 123.651 251.575 124.394 249.16 124.58C248.045 122.165 247.488 119.75 247.488 119.75C247.488 119.75 250.275 116.406 253.061 113.806C256.405 110.834 259.006 108.233 259.006 108.233C259.006 108.233 258.634 106.747 257.891 104.146C256.962 101.36 256.219 97.6443 256.219 95.2294C256.591 89.6565 259.191 84.2693 259.191 84.2693Z" fill="#E1F2FF"/>
<path d="M248.033 96.0199L249.642 96.9487L248.713 98.5576L247.104 97.6288L248.033 96.0199Z" fill="#3F2A28"/>
<path d="M245.758 95.6448L251.067 98.7099L249.116 102.088L243.808 99.0231L245.758 95.6448Z" fill="white"/>
<path d="M237.272 80.554C237.272 80.554 237.829 80.1825 239.501 80.3682C241.173 80.554 243.03 81.6686 244.331 81.2971C245.631 80.7398 246.188 79.811 246.374 78.8821C246.56 77.5818 246.56 75.9099 246.56 73.8665C247.303 74.238 247.303 74.6096 247.303 75.1669C247.674 77.0245 247.489 79.4394 247.303 80.554C246.931 82.4116 244.888 84.8266 241.544 85.7554C238.758 86.6842 238.015 85.1981 237.457 83.3405C237.086 81.8543 237.272 81.4828 237.272 80.554Z" fill="#3F2A28"/>
<path d="M238.2 82.0401C238.2 82.0401 239.129 81.8543 239.315 81.297C240.058 82.2258 241.172 82.2258 241.544 82.4116C241.172 82.7831 240.615 83.3404 239.5 83.1546C238.571 83.1546 238.2 82.0401 238.2 82.0401Z" fill="#FFC9B6"/>
<g opacity="0.2">
<path opacity="0.2" d="M128.622 189.871C124.034 192.509 124.034 196.753 128.622 199.391L160.623 217.857C165.211 220.496 172.552 220.496 177.025 217.857C181.613 215.219 181.613 210.975 177.025 208.337L145.024 189.871C140.55 187.347 133.21 187.347 128.622 189.871Z" fill="#1D1D1B"/>
</g>
<path d="M169.111 19.4261L94.3263 62.6681C92.4911 63.7004 91 66.3385 91 68.4031V233.915C91 234.948 91.3441 235.751 91.9176 236.095C92.4911 236.439 93.294 236.439 94.2116 235.865L168.996 192.623C170.831 191.591 172.322 188.953 172.322 186.888V21.3761C172.437 19.3115 170.946 18.3938 169.111 19.4261Z" fill="#6485A6"/>
<path d="M98.4554 239.765L91.9175 236.095L171.405 19.1967L177.828 22.8671L98.4554 239.765Z" fill="#6485A6"/>
<path d="M175.649 23.2112L100.75 66.3385C98.9144 67.3708 97.4233 70.0089 97.4233 72.0735V237.586C97.4233 238.618 97.7674 239.421 98.3409 239.765C98.9144 240.109 99.7173 240.109 100.635 239.536L175.419 196.294C177.255 195.262 178.746 192.623 178.746 190.559V25.0464C178.86 22.9818 177.369 22.0642 175.649 23.2112Z" fill="#314151"/>
<path d="M101.552 76.2027V225.084L174.846 182.759V33.8784L101.552 76.2027Z" fill="#6FDCED"/>
<path d="M147.432 201.226L128.966 211.893C128.163 212.352 127.589 213.384 127.589 214.302V219.807C127.589 220.725 128.163 221.069 128.966 220.61L147.432 209.943C148.235 209.484 148.809 208.452 148.809 207.534V202.029C148.809 201.111 148.121 200.767 147.432 201.226Z" fill="#6485A6"/>
<path opacity="0.5" d="M128.966 212.696C128.622 212.925 128.278 213.499 128.278 213.843V219.348C128.278 219.807 128.622 219.922 128.966 219.693L147.433 209.025C147.777 208.796 148.121 208.223 148.121 207.878V202.373C148.121 201.914 147.777 201.799 147.433 202.029L128.966 212.696Z" fill="black"/>
<path d="M133.898 50.3952C133.898 50.0511 133.668 49.9364 133.324 50.0511C132.98 50.2805 132.751 50.6246 132.751 51.0834V56.2449C132.751 56.589 132.98 56.7037 133.324 56.589C133.668 56.3596 133.898 56.0155 133.898 55.5567V50.3952Z" fill="#273340"/>
<path d="M136.307 49.0188C136.307 48.6747 136.077 48.56 135.733 48.6747C135.389 48.9041 135.16 49.2482 135.16 49.707V54.8685C135.16 55.2126 135.389 55.3273 135.733 55.2126C136.077 54.9832 136.307 54.6391 136.307 54.1803V49.0188Z" fill="#273340"/>
<path d="M138.715 47.6424C138.715 47.2983 138.486 47.1836 138.142 47.2983C137.798 47.5277 137.568 47.8718 137.568 48.3306V53.4921C137.568 53.8362 137.798 53.9509 138.142 53.8362C138.486 53.6068 138.715 53.2627 138.715 52.8039V47.6424Z" fill="#273340"/>
<path d="M141.124 46.266C141.124 45.9219 140.894 45.8072 140.55 45.9219C140.206 46.1513 139.977 46.4954 139.977 46.9542V52.1157C139.977 52.4598 140.206 52.5745 140.55 52.4598C140.894 52.2304 141.124 51.8863 141.124 51.4275V46.266Z" fill="#273340"/>
<path d="M143.532 44.7749C143.532 44.4308 143.303 44.3161 142.959 44.4308C142.615 44.6602 142.385 45.0043 142.385 45.4631V50.6246C142.385 50.9687 142.615 51.0834 142.959 50.9687C143.303 50.7393 143.532 50.3952 143.532 49.9364V44.7749Z" fill="#273340"/>
<path opacity="0.5" d="M133.898 50.3952C133.898 50.0511 133.668 49.9364 133.324 50.0511C132.98 50.2805 132.751 50.6246 132.751 51.0834V56.2449C132.751 56.589 132.98 56.7037 133.324 56.589C133.668 56.3596 133.898 56.0155 133.898 55.5567V50.3952Z" fill="black"/>
<path opacity="0.5" d="M136.307 49.0188C136.307 48.6747 136.077 48.56 135.733 48.6747C135.389 48.9041 135.16 49.2482 135.16 49.707V54.8685C135.16 55.2126 135.389 55.3273 135.733 55.2126C136.077 54.9832 136.307 54.6391 136.307 54.1803V49.0188Z" fill="black"/>
<path opacity="0.5" d="M138.715 47.6424C138.715 47.2983 138.486 47.1836 138.142 47.2983C137.798 47.5277 137.568 47.8718 137.568 48.3306V53.4921C137.568 53.8362 137.798 53.9509 138.142 53.8362C138.486 53.6068 138.715 53.2627 138.715 52.8039V47.6424Z" fill="black"/>
<path opacity="0.5" d="M141.124 46.266C141.124 45.9219 140.894 45.8072 140.55 45.9219C140.206 46.1513 139.977 46.4954 139.977 46.9542V52.1157C139.977 52.4598 140.206 52.5745 140.55 52.4598C140.894 52.2304 141.124 51.8863 141.124 51.4275V46.266Z" fill="black"/>
<path opacity="0.5" d="M143.532 44.7749C143.532 44.4308 143.303 44.3161 142.959 44.4308C142.615 44.6602 142.385 45.0043 142.385 45.4631V50.6246C142.385 50.9687 142.615 51.0834 142.959 50.9687C143.303 50.7393 143.532 50.3952 143.532 49.9364V44.7749Z" fill="black"/>
<path d="M112.449 65.3062C112.449 64.3886 111.761 63.9298 110.958 64.5033C110.155 64.9621 109.467 66.1091 109.467 67.0267C109.467 67.9443 110.155 68.4031 110.958 67.8296C111.875 67.3708 112.449 66.2238 112.449 65.3062Z" fill="#6485A6"/>
<path opacity="0.5" d="M123.345 59.1124C123.345 58.1948 122.657 57.736 121.854 58.3095C121.051 58.7683 120.363 59.9153 120.363 60.8329C120.363 61.7505 121.051 62.2093 121.854 61.6358C122.657 61.177 123.345 60.03 123.345 59.1124Z" fill="black"/>
<path opacity="0.5" d="M144.336 198.702L102.929 104.648V77.0056L116.119 69.3207L166.588 185.971L144.336 198.702Z" fill="white"/>
<path opacity="0.5" d="M173.469 181.956L169.914 184.021L119.446 67.3708L126.328 63.471L173.469 173.813V181.956Z" fill="white"/>
<path d="M164.982 161.196C155.92 157.066 149.153 159.131 142.042 166.128V134.815H165.67L164.982 161.196Z" fill="#B2B2B2"/>
<path d="M170.487 98.3399L162.687 79.8731C157.641 71.8441 146.515 79.0702 156.838 94.2107L164.637 107.401L167.39 106.713L170.487 98.3399C170.487 98.4546 170.487 98.4546 170.487 98.3399Z" fill="white"/>
<path d="M139.289 184.824L135.618 190.215L136.995 196.179C139.633 198.473 140.78 200.079 140.092 201.57C138.486 203.176 136.307 203.405 133.783 202.946C129.31 202.717 126.213 194.114 124.722 189.526C125.64 187.462 126.672 186.315 128.163 185.397L131.948 179.662L139.289 184.824Z" fill="#3C3C3B"/>
<path d="M166.932 198.817L168.308 205.929C169.455 207.764 171.29 209.255 173.699 210.287C176.681 210.861 178.631 211.549 179.549 213.155C180.007 214.072 179.893 215.219 179.204 216.137C178.287 217.399 177.025 218.202 174.272 218.202C168.881 217.743 161.655 216.71 159.82 214.99C159.361 212.925 158.903 210.861 159.476 208.567L157.641 200.997L166.932 198.817Z" fill="#3C3C3B"/>
<path d="M162.917 129.997L157.067 162.801L135.618 190.215C134.242 191.362 125.984 189.641 127.36 184.938L143.762 155.116L146.63 130.456L159.591 126.212L162.917 129.997Z" fill="#1D1D1B"/>
<path d="M140.206 149.726L149.727 171.977C153.741 194.229 156.953 203.979 158.558 209.714C159.361 212.467 169.455 211.205 169.455 206.732L163.605 166.931L155.003 141.467C160.05 139.288 162.917 135.732 163.146 126.671C162.573 114.627 139.174 126.212 136.995 133.323C135.274 139.058 137.224 146.055 140.206 149.726Z" fill="#1D1D1B"/>
<path d="M136.995 130.456C136.995 130.456 136.88 132.979 136.995 133.897C145.139 139.632 161.999 132.635 163.491 127.244C163.491 126.097 163.605 125.065 163.491 123.574C158.444 130.341 143.074 133.897 136.995 130.456Z" fill="black"/>
<path d="M158.329 131.488C157.526 132.176 156.379 132.635 155.003 133.209V131.144C156.264 130.685 157.411 130.227 158.329 129.424V131.488Z" fill="#575756"/>
<path d="M163.491 124.491C159.247 130.456 144.221 135.961 136.995 130.685C135.504 129.538 135.963 128.162 135.504 124.95C135.16 121.395 134.816 118.183 134.471 115.315C133.439 103.845 133.21 96.5047 133.324 92.6049C133.324 91.9167 133.21 91.6873 133.324 91.1138C136.307 87.6728 141.583 83.6583 145.827 80.9055C151.562 78.2674 152.021 78.4968 154.888 77.4645C166.473 73.2206 164.867 122.542 163.491 124.491Z" fill="#70B3D4"/>
<path d="M153.168 168.307C148.35 171.518 140.895 173.239 133.324 167.963C133.095 167.733 132.751 167.619 132.522 167.389C132.063 167.045 131.833 166.93 131.604 166.242C131.604 166.128 131.489 165.898 131.489 165.783L133.095 107.631V107.401L133.324 91.1137C135.618 88.0168 139.748 84.9199 143.418 82.3965C147.777 88.4756 150.3 99.1427 151.676 110.498L152.365 127.588L152.938 142.27C152.709 145.137 153.168 165.439 153.168 168.307Z" fill="white"/>
<path d="M152.479 77.8085C155.691 85.9522 158.558 95.8164 159.361 106.484L162.917 162.457C165.44 162.687 168.652 159.934 168.308 155.46L164.523 95.2429C163.032 82.8553 160.508 74.7116 152.479 77.8085Z" fill="white"/>
<path d="M142.156 83.0848C141.009 85.7229 147.432 89.9668 150.529 89.9668C151.332 88.8198 151.332 86.9846 152.02 85.6082C153.053 86.2964 154.2 87.4434 155.461 88.2463C156.608 79.4144 146.4 76.5469 144.221 80.2173C143.762 80.9055 142.5 82.2819 142.156 83.0848Z" fill="#7BC4E8"/>
<path d="M144.221 80.2173C143.762 84.2318 145.368 85.1494 146.974 89.0492C149.382 95.1283 150.988 103.96 151.676 110.498L143.762 92.7196L146.744 90.3109L143.418 90.655C142.386 88.2463 141.583 85.9523 141.812 83.773C142.271 82.626 143.074 81.1349 144.221 80.2173Z" fill="#DADADA"/>
<path d="M151.906 77.8085C155.806 85.0346 158.214 96.0458 159.476 108.433C160.164 100.404 160.394 92.8342 159.82 86.411L157.182 86.8698L159.476 85.0346L154.314 77.3497L151.906 77.8085Z" fill="#DADADA"/>
<path d="M155.003 70.0089C156.723 68.4031 159.132 65.765 158.788 63.0122C158.444 59.6859 155.003 58.4242 150.644 58.4242C144.336 58.4242 141.583 63.7004 142.959 70.0089C143.418 72.1882 143.648 75.3998 144.68 75.5145C146.171 75.7439 145.368 75.0557 146.515 75.2851L155.003 70.0089Z" fill="#1D1D1B"/>
<path d="M154.085 84.1171V84.0023L154.315 80.7908L154.429 79.8731L144.794 73.6793L144.106 79.8731C143.074 86.067 153.053 87.214 154.085 84.1171Z" fill="#FFBB7D"/>
<path opacity="0.1" d="M154.085 84.1171V84.0024L154.315 80.7908L147.318 77.1204C146.859 81.0202 150.071 85.1494 154.085 84.1171Z" fill="#1D1D1B"/>
<path d="M159.476 64.7327C158.788 60.9476 154.888 59.4565 150.759 59.5712C145.024 59.6859 143.533 63.9298 143.418 68.2884C143.533 70.353 144.106 72.7617 144.68 74.8263L147.432 76.8909C147.432 76.8909 148.235 79.1849 149.612 80.4466C150.988 81.5936 152.823 82.5112 154.544 82.1671C156.494 81.9377 157.755 80.676 158.214 77.5791C158.673 74.7116 159.017 74.4822 159.247 73.1058C159.361 72.3029 159.132 71.5 159.247 71.0412C159.361 70.5824 159.591 69.8942 159.705 69.3207C159.935 68.4031 159.705 65.8797 159.476 64.7327Z" fill="#FFBB7D"/>
<path d="M148.35 63.7004C147.203 63.2416 148.236 70.353 148.236 70.353C148.236 70.353 146.515 70.2383 146.171 70.5824C145.368 71.2706 146.63 74.0234 145.942 75.1705C145.712 75.5146 145.253 75.6293 144.68 75.5146C144.221 73.5647 143.418 71.5 143.189 69.5501C142.959 67.6002 143.189 65.5356 143.877 63.7004C144.68 61.8652 146.056 60.2594 147.892 59.5712C149.497 58.883 151.447 58.883 153.168 59.2271C157.412 59.9153 158.444 61.2917 158.903 62.8975C158.444 64.8474 154.085 66.3385 148.35 63.7004Z" fill="#1D1D1B"/>
<path d="M146.056 68.6325C144.68 68.1737 144.68 70.0089 144.794 70.8118C144.909 71.3853 145.024 71.8441 145.139 72.4176C145.253 72.8764 145.139 73.5646 145.483 74.0234C146.4 75.0557 147.203 73.3352 147.433 72.647C147.662 71.6147 147.203 69.0913 146.056 68.6325Z" fill="#FFBB7D"/>
<path d="M165.096 104.648L161.082 122.312C159.935 126.212 165.555 129.768 166.817 126.441C169.914 119.903 171.405 113.021 172.552 104.878C173.011 103.272 171.405 100.634 170.487 98.3398C167.161 99.8309 166.473 102.24 165.096 104.648Z" fill="white"/>
<path d="M163.146 122.656C164.408 123.689 165.555 124.836 166.358 126.671C166.587 128.277 166.358 129.882 165.899 131.488C164.408 132.75 162.687 133.209 160.623 133.668C159.246 132.521 156.379 128.621 156.723 127.588L159.705 123.459C160.737 122.886 161.77 122.656 163.146 122.656Z" fill="#FFBB7D"/>
<path opacity="0.1" d="M162.573 124.836L161.77 126.556L158.673 127.818L157.641 126.9L158.903 125.639L162.573 124.836Z" fill="#1D1D1B"/>
<path d="M162.229 122.886C161.885 122.656 161.426 122.656 161.082 122.771C160.508 122.886 159.705 123.115 159.247 123.459C158.329 124.033 158.1 124.836 157.182 125.639C157.067 125.753 156.953 125.868 156.953 125.983C156.953 126.327 157.297 126.441 157.526 126.556C158.214 126.671 158.903 126.556 159.361 126.212C159.82 125.868 160.164 125.294 160.738 125.18C161.311 125.065 161.999 125.409 162.458 125.065C162.688 124.836 162.688 124.492 162.688 124.262C162.802 123.803 162.802 123.23 162.229 122.886Z" fill="#FFBB7D"/>
<path opacity="0.2" d="M140.321 102.24C135.963 114.168 133.554 149.267 133.325 167.963C133.095 167.733 132.751 167.619 132.522 167.389C132.063 167.045 131.833 166.931 131.604 166.242L133.095 107.631L140.321 102.24Z" fill="#1D1D1B"/>
<path d="M140.092 157.181V170.83C140.092 171.863 139.748 172.551 139.174 172.895C138.945 173.01 138.142 173.468 137.224 174.042C136.88 174.157 136.651 174.386 136.307 174.616C136.077 174.73 135.963 174.845 135.733 174.96C135.389 175.189 135.16 175.304 134.816 175.418C134.013 175.877 133.324 176.336 132.98 176.565L126.787 171.06L125.066 169.569L113.367 159.246C111.646 158.213 110.155 155.805 110.155 153.74L107.058 146.973L106.599 145.94L104.649 141.697C105.452 141.238 106.255 140.779 106.829 140.435C107.173 140.205 107.517 139.976 107.861 139.861C108.32 139.632 108.664 139.403 109.008 139.173C110.04 138.6 110.614 138.256 110.958 138.026C111.531 137.682 112.334 137.682 113.252 138.256L115.546 139.517L118.184 141.008L121.052 142.614L129.081 147.317L131.489 148.693L134.127 150.184L136.765 151.675C138.715 152.593 140.092 155.116 140.092 157.181Z" fill="#E96E46"/>
<path d="M104.076 143.532V157.181C104.076 159.246 105.452 161.654 107.288 162.687L130.686 176.221C132.407 177.254 133.898 176.451 133.898 174.386V160.737C133.898 158.672 132.522 156.263 130.686 155.231L123.001 150.758L114.972 146.055L107.288 141.582C105.452 140.664 104.076 141.467 104.076 143.532Z" fill="#D44719"/>
<path d="M134.127 153.052L126.442 148.579L118.413 143.876L110.728 139.403C110.27 139.173 109.811 138.944 109.352 138.944C109.008 139.173 108.664 139.403 108.205 139.632C108.434 139.517 108.779 139.403 109.123 139.403C109.581 139.403 110.04 139.517 110.499 139.861L118.184 144.335L126.213 149.037L133.898 153.511C135.618 154.543 137.11 156.952 137.11 159.016V172.666C137.11 173.583 136.88 174.157 136.421 174.501C136.765 174.271 136.995 174.157 137.339 173.927C137.454 173.583 137.568 173.124 137.568 172.551V158.902C137.454 156.722 135.963 154.084 134.127 153.052Z" fill="#D44719"/>
<path d="M133.324 150.758L129.998 152.708L127.933 151.446L131.26 149.496L133.324 150.758Z" fill="#F6F6F6"/>
<path d="M133.324 151.102L129.998 153.052V152.708L133.324 150.758V151.102Z" fill="#DADADA"/>
<path d="M127.933 151.79L129.998 153.052V152.708L127.933 151.446V151.79Z" fill="#C6C6C6"/>
<path d="M115.66 140.435L112.334 142.385L110.27 141.238L113.596 139.288L115.66 140.435Z" fill="#F6F6F6"/>
<path d="M115.661 140.779L112.334 142.729V142.385L115.661 140.435V140.779Z" fill="#DADADA"/>
<path d="M110.27 141.582L112.334 142.729V142.385L110.27 141.238V141.582Z" fill="#C6C6C6"/>
<path d="M109.926 157.296L111.646 158.328V159.016L110.614 158.443V159.36L111.417 159.819V160.507L110.614 160.049V161.425L109.811 160.966V157.296H109.926Z" fill="white"/>
<path d="M111.875 158.443L112.678 158.902V162.572L111.875 162.113V158.443Z" fill="white"/>
<path d="M113.137 159.131L114.514 159.934C114.628 160.049 114.858 160.163 114.972 160.393C115.087 160.622 115.087 160.737 115.087 160.966V162.113C115.087 162.228 115.087 162.343 114.972 162.343C114.858 162.343 114.858 162.343 114.743 162.343L115.087 163.49V163.948L114.284 163.49V163.031L113.94 161.884V163.26L113.137 162.801V159.131ZM114.284 160.507L113.94 160.278V161.196L114.284 161.425V160.507Z" fill="white"/>
<path d="M115.431 162.916L116.234 163.375V163.834L116.578 164.063V163.26L115.775 162.801C115.661 162.687 115.546 162.687 115.546 162.457C115.431 162.343 115.431 162.228 115.431 162.113V161.081C115.431 160.851 115.431 160.737 115.546 160.737C115.661 160.622 115.775 160.737 116.005 160.737L116.808 161.196C116.922 161.31 117.152 161.425 117.266 161.654C117.381 161.884 117.381 161.998 117.381 162.228V162.687L116.578 162.228V161.769L116.234 161.54V162.343L117.037 162.801C117.152 162.916 117.266 162.916 117.266 163.145C117.381 163.26 117.381 163.375 117.381 163.49V164.522C117.381 164.751 117.381 164.866 117.266 164.866C117.152 164.981 117.037 164.866 116.808 164.866L116.005 164.407C115.89 164.292 115.661 164.178 115.546 163.948C115.431 163.719 115.431 163.604 115.431 163.375V162.916Z" fill="white"/>
<path d="M118.184 162.687L117.725 162.457V161.769L119.446 162.801V163.49L118.987 163.26V166.242L118.184 165.784V162.687Z" fill="white"/>
<path d="M120.937 164.293C120.937 164.063 120.937 163.948 121.052 163.948C121.166 163.834 121.281 163.948 121.511 163.948L122.313 164.407C122.428 164.522 122.658 164.637 122.772 164.866C122.887 165.095 122.887 165.21 122.887 165.44V168.422L122.084 167.963V166.816L121.74 166.587V167.734L120.937 167.275V164.293ZM122.084 164.981L121.74 164.751V165.898L122.084 166.128V164.981Z" fill="white"/>
<path d="M123.231 164.981L124.034 165.44V169.11L123.231 168.651V164.981Z" fill="white"/>
<path d="M124.492 165.669L125.869 166.472C125.984 166.587 126.213 166.701 126.328 166.931C126.442 167.16 126.442 167.275 126.442 167.504V169.798C126.442 170.028 126.442 170.142 126.328 170.142C126.213 170.257 126.098 170.142 125.869 170.142L124.492 169.339V165.669ZM125.639 167.045L125.295 166.816V169.11L125.639 169.339V167.045Z" fill="white"/>
<path d="M114.972 151.561L117.266 152.937V150.184L120.249 151.905V154.658L122.657 156.034V159.475L120.249 158.099V160.851L117.266 159.131V156.378L114.972 155.002V151.561Z" fill="white"/>
<path d="M118.184 138.6L117.954 142.041L116.234 141.926L116.349 139.632C116.349 139.288 116.578 138.829 116.807 138.485L118.184 138.6Z" fill="#1D1D1B"/>
<path d="M117.725 141.582C118.069 141.811 118.069 142.155 117.725 142.27C117.381 142.499 116.808 142.385 116.464 142.155C116.12 141.926 116.12 141.582 116.464 141.467C116.922 141.352 117.381 141.352 117.725 141.582Z" fill="#382C2D"/>
<path d="M119.446 142.155L116.693 140.205L117.955 138.026L120.823 139.976L119.446 142.155Z" fill="#382C2D"/>
<path d="M121.052 140.55C121.052 141.123 120.593 141.811 120.019 142.041C119.446 142.27 119.102 142.041 119.102 141.467C119.102 140.894 119.561 140.205 120.134 139.976C120.708 139.747 121.052 139.976 121.052 140.55Z" fill="#3D5A55"/>
<path d="M118.299 138.714C118.299 138.943 118.184 139.058 118.184 139.287C117.955 139.746 117.725 140.09 117.267 140.32C117.037 140.434 116.808 140.434 116.693 140.434C116.464 140.32 116.349 140.09 116.464 139.746C116.464 139.402 116.693 138.943 116.923 138.599C117.037 138.37 117.267 138.255 117.496 138.14C117.725 138.026 117.955 138.026 118.07 138.14C118.184 138.255 118.299 138.37 118.299 138.714Z" fill="#1D1D1B"/>
<path d="M118.528 136.076L116.234 141.352L116.922 144.449C117.954 145.596 119.675 146.399 121.625 147.317L124.951 145.826L125.869 142.958L124.722 137.223C122.657 135.732 120.592 135.159 118.528 136.076Z" fill="#FFBB7D"/>
<path opacity="0.1" d="M124.493 141.238L122.772 143.302V145.138L123.69 144.449C124.149 145.138 124.493 145.367 124.952 145.138L125.066 144.335L124.493 141.238Z" fill="#1D1D1B"/>
<path d="M122.887 139.403L124.148 141.697V143.761C124.148 144.793 125.41 145.596 125.754 144.335L126.213 140.894L124.837 136.994L122.887 139.403Z" fill="#FFBB7D"/>
<path d="M125.869 146.284L123.002 144.449L124.378 142.27L127.246 144.105L125.869 146.284Z" fill="#4D4D4D"/>
<path d="M127.475 144.793C127.475 145.367 127.016 146.055 126.442 146.284C125.869 146.514 125.525 146.284 125.525 145.711C125.525 145.138 125.984 144.449 126.557 144.22C127.131 143.876 127.475 144.105 127.475 144.793Z" fill="#4D4D4D"/>
<path d="M124.722 142.843C124.722 143.417 124.263 144.105 123.69 144.335C123.116 144.564 122.772 144.335 122.772 143.761C122.772 143.188 123.231 142.499 123.805 142.27C124.263 142.041 124.722 142.27 124.722 142.843Z" fill="#4D4D4D"/>
<path d="M125.869 146.284L123.002 144.449L124.378 142.27L127.246 144.105L125.869 146.284Z" fill="#1D1D1B"/>
<path d="M127.475 144.793C127.475 145.367 127.016 146.055 126.442 146.284C125.869 146.514 125.525 146.284 125.525 145.711C125.525 145.138 125.984 144.449 126.557 144.22C127.131 143.876 127.475 144.105 127.475 144.793Z" fill="#1D1D1B"/>
<path d="M124.722 142.843C124.722 143.417 124.263 144.105 123.69 144.335C123.116 144.564 122.772 144.335 122.772 143.761C122.772 143.188 123.231 142.499 123.805 142.27C124.263 142.041 124.722 142.27 124.722 142.843Z" fill="#1D1D1B"/>
<path d="M125.687 144.589L125.506 148.025L127.224 148.115L127.405 144.679L125.687 144.589Z" fill="#1D1D1B"/>
<path d="M127.016 147.776C127.36 148.005 127.36 148.349 127.016 148.464C126.672 148.693 126.099 148.578 125.754 148.349C125.41 148.12 125.41 147.776 125.754 147.661C126.213 147.546 126.787 147.546 127.016 147.776Z" fill="#1D1D1B"/>
<path d="M138.371 106.713L129.883 118.642L125.525 137.453C124.492 140.32 118.069 138.829 117.84 135.962C117.496 125.983 118.872 119.904 120.593 112.104C125.066 103.616 129.31 96.0459 133.21 90.9991C136.765 88.8198 144.335 98.2252 138.371 106.713Z" fill="white"/>
<path opacity="0.2" d="M163.261 91.6873C164.867 96.2753 166.129 101.666 168.652 102.24C167.046 103.96 164.637 109.122 162.917 114.971C165.211 105.681 164.408 98.9134 163.261 91.6873Z" fill="#1D1D1B"/>
</svg>
