<svg width="43" height="44" viewBox="0 0 43 44" fill="none" xmlns="http://www.w3.org/2000/svg">
<path d="M42.8997 21.7373C42.8997 9.95457 33.296 0.402344 21.4499 0.402344C9.60364 0.402344 0 9.95457 0 21.7373C0 33.5201 9.60364 43.0723 21.4499 43.0723C33.296 43.0723 42.8997 33.5201 42.8997 21.7373ZM1.94997 21.7373C1.94997 11.0252 10.6801 2.34188 21.4499 2.34188C32.2196 2.34188 40.9497 11.0252 40.9497 21.7373C40.9497 32.4495 32.2196 41.1328 21.4499 41.1328C10.6801 41.1328 1.94997 32.4495 1.94997 21.7373Z" fill="#fff"/>
<path d="M22.2726 34.0518V21.7377H26.3578L27.0033 17.6569H22.2726V15.6107C22.2726 14.5459 22.6236 13.5296 24.1602 13.5296H27.2313V9.45654H22.8712C19.2053 9.45654 18.2049 11.8576 18.2049 15.186V17.655H15.6895V21.7377H18.2049V34.0518H22.2726Z" fill="#fff"/>
</svg>
