<svg width="44" height="44" viewBox="0 0 44 44" fill="none" xmlns="http://www.w3.org/2000/svg">
<path d="M43.0271 21.7373C43.0271 9.95457 33.4234 0.402344 21.5773 0.402344C9.73109 0.402344 0.127441 9.95457 0.127441 21.7373C0.127441 33.5201 9.73109 43.0723 21.5773 43.0723C33.4234 43.0723 43.0271 33.5201 43.0271 21.7373ZM2.07742 21.7373C2.07742 11.0252 10.8075 2.34188 21.5773 2.34188C32.3471 2.34188 41.0772 11.0252 41.0772 21.7373C41.0772 32.4495 32.3471 41.1328 21.5773 41.1328C10.8075 41.1328 2.07742 32.4495 2.07742 21.7373Z" fill="#fff"/>
<path d="M14.7446 12.5938H28.4105C29.7083 12.5938 30.7702 13.5495 30.7702 14.9408V28.5339C30.7702 29.9252 29.7083 30.8809 28.4105 30.8809H14.7446C13.4464 30.8809 12.3848 29.9252 12.3848 28.5339V14.9408C12.3848 13.5495 13.4464 12.5938 14.7446 12.5938ZM25.7779 14.6255C25.3225 14.6255 24.9505 14.9958 24.9505 15.4489V17.4194C24.9505 17.8723 25.3225 18.2428 25.7779 18.2428H27.8559C28.3112 18.2428 28.6836 17.8723 28.6836 17.4194V15.4489C28.6836 14.9958 28.3112 14.6255 27.8559 14.6255H25.7779ZM28.6923 20.3273H27.0742C27.2273 20.8245 27.3101 21.3512 27.3101 21.8961C27.3101 24.9378 24.7511 27.4035 21.595 27.4035C18.4391 27.4035 15.8805 24.9378 15.8805 21.8961C15.8805 21.3508 15.9632 20.8243 16.1164 20.3273H14.4279V28.0521C14.4279 28.4518 14.7567 28.7791 15.1588 28.7791H27.9618C28.3639 28.7791 28.6927 28.452 28.6927 28.0521V20.3273H28.6923ZM21.5948 18.1389C19.5557 18.1389 17.9024 19.7321 17.9024 21.6976C17.9024 23.6631 19.5557 25.2563 21.5948 25.2563C23.6342 25.2563 25.2876 23.6631 25.2876 21.6976C25.2876 19.7321 23.6343 18.1389 21.5948 18.1389Z" fill="#fff"/>
</svg>
