<svg width="388" height="355" viewBox="0 0 388 355" fill="none" xmlns="http://www.w3.org/2000/svg">
<path d="M367.583 172.318C399.55 234.129 295.011 209.851 231.238 242.833C167.465 275.816 128.437 392.357 96.4701 330.546C64.5027 268.736 17.9451 134.735 81.718 101.753C145.491 68.7707 320.037 80.3856 367.583 172.318Z" fill="#55BFD9" fill-opacity="0.3"/>
<path d="M363.299 216.071C378.747 283.923 283.634 234.209 213.629 250.147C143.623 266.086 76.6214 369.119 61.1732 301.267C45.725 233.416 34.2531 92.0225 104.259 76.0839C174.264 60.1453 340.322 115.154 363.299 216.071Z" fill="#55BFD9" fill-opacity="0.3"/>
<path d="M274.878 246.633L298.392 232.917V230.566L274.878 244.282V246.633Z" fill="url(#paint0_linear)"/>
<path d="M289.767 225.472L279.97 219.594L271.348 214.891L255.281 205.486L238.038 195.689L226.673 189.027L203.159 202.743L209.038 206.27L227.457 216.851L243.916 226.256L256.064 233.31L261.551 236.445L274.875 244.283L298.389 230.567L289.767 225.472Z" fill="#414654"/>
<path d="M232.153 164.73C228.626 162.771 222.748 162.771 219.221 164.73C217.262 165.906 216.478 167.474 216.87 169.041L209.032 173.744L202.762 170.217L226.275 156.501L237.64 163.163L233.721 165.906C233.329 165.514 232.545 165.122 232.153 164.73Z" fill="#FCFBFB"/>
<path d="M232.534 135.337V200.391C232.534 204.702 229.007 207.837 225.088 207.837C220.777 207.837 217.642 204.31 217.642 200.391V135.337H232.534Z" fill="#A7D6E7"/>
<path d="M231.361 163.16V200.781C231.361 204.308 228.618 207.052 225.091 207.052C221.564 207.052 218.821 204.308 218.821 200.781V163.16H231.361Z" fill="#F24545"/>
<path d="M229.401 160.417C231.753 161.984 232.144 163.943 229.401 165.511C227.05 167.079 223.131 167.079 220.78 165.511C218.428 163.943 218.037 161.984 220.78 160.417C223.131 159.241 227.05 158.849 229.401 160.417Z" fill="#FF6F65"/>
<path opacity="0.5" d="M230.975 135.337V196.08C230.975 199.999 230.191 203.134 229.016 203.134C227.84 203.134 227.056 199.999 227.056 196.08V135.337H230.975Z" fill="#FBFBFB"/>
<path d="M234.108 138.473V134.554C234.108 135.73 233.324 137.297 231.756 138.081C228.229 140.041 222.743 140.433 218.824 138.081C216.864 136.906 216.081 135.73 216.081 134.162V138.081C216.081 139.649 216.864 140.824 218.824 142C222.351 143.96 228.229 143.96 231.756 142C233.324 140.824 234.108 139.649 234.108 138.473Z" fill="#8BC3DE"/>
<path d="M231.363 130.635C234.89 132.594 235.282 136.121 231.755 138.081C228.228 140.04 222.741 140.432 218.822 138.081C215.295 136.121 214.904 132.594 218.431 130.635C221.958 128.675 227.836 128.283 231.363 130.635Z" fill="#BEE9F7"/>
<path d="M225.088 138.473C227.439 138.473 229.399 138.081 230.966 136.906C232.142 136.122 232.926 135.338 232.926 134.162C232.926 133.379 232.142 132.203 230.966 131.419C229.399 130.635 227.439 130.243 225.48 130.243C223.128 130.243 221.169 130.635 219.601 131.811C218.426 132.595 217.642 133.379 217.642 134.554C217.642 135.338 218.426 136.514 219.601 137.298C220.777 137.689 223.128 138.473 225.088 138.473Z" fill="#86C0DA"/>
<path d="M217.259 134.162C217.259 134.554 217.259 134.946 217.651 135.338C218.043 134.946 218.434 134.554 219.218 134.162C220.786 133.379 222.745 132.595 225.097 132.595C227.056 132.595 229.407 132.987 230.583 133.77C231.367 134.162 231.759 134.554 232.151 135.338C232.542 134.946 232.542 134.554 232.542 134.162C232.542 133.379 231.759 132.203 230.583 131.419C229.015 130.635 227.056 130.243 225.097 130.243C222.745 130.243 220.786 130.635 219.218 131.811C218.043 132.595 217.259 133.379 217.259 134.162Z" fill="#62A8CB"/>
<path d="M206.283 172.957V202.741L204.324 203.525V172.957H206.283Z" fill="url(#paint1_linear)"/>
<path d="M216.867 169.038C217.258 170.214 218.042 171.39 219.61 172.173C223.137 174.133 229.015 174.133 232.542 172.173C235.285 170.606 235.677 167.863 233.718 165.903L238.42 163.16L255.664 172.957L250.961 175.7C250.569 175.309 250.177 174.917 249.393 174.525C245.866 172.565 239.988 172.565 236.461 174.525C234.11 176.092 233.326 178.052 234.502 179.619L227.448 183.93L209.421 173.349L216.867 169.038Z" fill="#FCFBFB"/>
<path d="M250.169 142.391V207.444C250.169 211.755 246.642 214.89 242.723 214.89C238.412 214.89 235.277 211.363 235.277 207.444V142.391H250.169Z" fill="#A7D6E7"/>
<path d="M248.996 170.213V207.835C248.996 211.362 246.253 214.105 242.726 214.105C239.199 214.105 236.455 211.362 236.455 207.835V170.213H248.996Z" fill="#F24545"/>
<path d="M247.036 167.471C249.387 169.038 249.779 170.998 247.036 172.565C244.685 174.133 240.766 174.133 238.415 172.565C236.063 170.998 235.671 169.038 238.415 167.471C240.374 166.295 244.685 166.295 247.036 167.471Z" fill="#FF6F65"/>
<path opacity="0.5" d="M248.61 142.781V203.524C248.61 207.443 247.826 210.578 246.65 210.578C245.475 210.578 244.691 207.443 244.691 203.524V142.781H248.61Z" fill="#FBFBFB"/>
<path d="M251.742 145.526V141.607C251.742 142.783 250.958 144.351 249.391 145.135C245.864 147.094 240.377 147.486 236.458 145.135C234.499 143.959 233.715 142.783 233.715 141.216V145.135C233.715 146.702 234.499 147.878 236.458 149.053C239.985 151.013 245.864 151.013 249.391 149.053C250.958 148.27 251.742 147.094 251.742 145.526Z" fill="#8BC3DE"/>
<path d="M248.998 137.687C252.525 139.646 252.917 143.173 249.39 145.133C245.863 147.092 240.376 147.484 236.457 145.133C232.93 143.173 232.538 139.646 236.065 137.687C239.592 135.727 245.471 135.727 248.998 137.687Z" fill="#BEE9F7"/>
<path d="M242.723 145.526C245.074 145.526 247.034 145.135 248.601 143.959C249.777 143.175 250.561 142.391 250.561 141.216C250.561 140.432 249.777 139.256 248.601 138.472C247.034 137.689 245.074 137.297 243.115 137.297C240.764 137.297 238.804 137.689 237.237 138.864C236.061 139.648 235.277 140.432 235.277 141.608C235.277 142.391 236.061 143.567 237.237 144.351C238.412 145.135 240.372 145.526 242.723 145.526Z" fill="#86C0DA"/>
<path d="M234.894 141.606C234.894 141.998 234.894 142.39 235.286 142.782C235.678 142.39 236.069 141.998 236.853 141.606C238.421 140.822 240.38 140.038 242.732 140.038C244.691 140.038 247.042 140.43 248.218 141.214C249.002 141.606 249.394 141.998 249.786 142.782C250.177 142.39 250.177 141.998 250.177 141.606C250.177 140.822 249.394 139.647 248.218 138.863C246.65 138.079 244.691 137.687 242.732 137.687C240.38 137.687 238.421 138.079 236.853 139.255C235.678 139.647 234.894 140.43 234.894 141.606Z" fill="#62A8CB"/>
<path d="M234.508 180.011C234.899 180.795 235.683 181.579 236.859 181.971C240.386 183.93 246.264 183.93 249.791 181.971C252.535 180.403 252.926 177.66 250.967 175.7L255.67 172.957L271.737 181.971L267.426 184.322C267.034 184.322 267.034 183.93 266.643 183.93C263.116 181.971 257.237 181.971 253.71 183.93C251.359 185.106 250.575 187.065 251.359 189.025L243.913 193.727L227.454 184.322L234.508 180.011Z" fill="#FCFBFB"/>
<path d="M267.023 152.578V217.632C267.023 221.943 263.496 225.078 259.577 225.078C255.266 225.078 252.131 221.551 252.131 217.632V152.578H267.023Z" fill="#A7D6E7"/>
<path d="M265.85 180.01V217.632C265.85 221.159 263.107 223.902 259.58 223.902C256.053 223.902 253.309 221.159 253.309 217.632V180.01H265.85Z" fill="#F24545"/>
<path d="M263.891 177.658C266.242 179.225 266.634 181.185 263.891 182.752C261.539 184.32 257.62 184.32 255.269 182.752C252.918 181.185 252.526 179.225 255.269 177.658C257.228 176.09 261.147 176.09 263.891 177.658Z" fill="#FF6F65"/>
<path opacity="0.5" d="M265.464 152.578V213.321C265.464 217.24 264.68 220.375 263.504 220.375C262.329 220.375 261.545 217.24 261.545 213.321V152.578H265.464Z" fill="#FBFBFB"/>
<path d="M268.596 155.323V151.405C268.596 152.58 267.812 154.148 266.245 154.932C262.718 156.891 257.231 157.283 253.313 154.932C251.353 153.756 250.569 152.58 250.569 151.013V154.932C250.569 156.499 251.353 157.675 253.313 158.851C256.84 160.81 262.718 160.81 266.245 158.851C267.812 158.067 268.596 156.891 268.596 155.323Z" fill="#8BC3DE"/>
<path d="M265.852 147.484C269.379 149.444 269.771 152.971 266.244 154.93C262.717 156.89 257.23 157.282 253.312 154.93C249.784 152.971 249.393 149.444 252.92 147.484C256.447 145.525 262.325 145.525 265.852 147.484Z" fill="#BEE9F7"/>
<path d="M259.577 155.324C261.928 155.324 263.888 154.932 265.455 153.756C266.631 152.972 267.415 152.188 267.415 151.013C267.415 150.229 266.631 149.053 265.455 148.27C263.888 147.486 261.928 147.094 259.969 147.094C257.618 147.094 255.658 147.486 254.091 148.661C252.915 149.445 252.131 150.229 252.131 151.405C252.131 152.188 252.915 153.364 254.091 154.148C255.266 154.932 257.226 155.324 259.577 155.324Z" fill="#86C0DA"/>
<path d="M251.748 151.403C251.748 151.795 251.748 152.187 252.14 152.579C252.532 152.187 252.924 151.795 253.707 151.403C255.275 150.619 257.234 149.836 259.586 149.836C261.545 149.836 263.897 150.228 265.072 151.011C265.856 151.403 266.248 151.795 266.64 152.579C267.032 152.187 267.032 151.795 267.032 151.403C267.032 150.619 266.248 149.444 265.072 148.66C263.505 147.876 261.545 147.484 259.586 147.484C257.234 147.484 255.275 147.876 253.707 149.052C252.532 149.444 251.748 150.619 251.748 151.403Z" fill="#62A8CB"/>
<path d="M283.883 194.512C280.356 192.553 274.478 192.553 270.951 194.512C268.599 196.08 267.815 198.039 268.991 199.607L261.545 203.918L256.059 200.783L243.91 193.729L251.356 189.026C251.748 189.81 252.532 190.594 253.707 191.377C257.234 193.337 263.113 193.337 266.64 191.377C269.775 189.418 269.775 186.675 267.032 184.715L271.342 182.364L279.572 187.066L289.369 192.553L285.059 194.904C284.667 195.296 284.275 194.904 283.883 194.512Z" fill="#FCFBFB"/>
<path d="M284.658 164.335V229.388C284.658 233.699 281.131 236.834 277.212 236.834C272.901 236.834 269.766 233.307 269.766 229.388V164.335H284.658Z" fill="#A7D6E7"/>
<path d="M283.485 191.767V229.388C283.485 232.915 280.742 235.659 277.215 235.659C273.688 235.659 270.945 232.915 270.945 229.388V191.767H283.485Z" fill="#F24545"/>
<path d="M281.525 189.025C283.877 190.592 284.269 192.552 281.525 194.119C279.174 195.687 275.255 195.687 272.904 194.119C270.552 192.552 270.161 190.592 272.904 189.025C275.255 187.849 279.174 187.849 281.525 189.025Z" fill="#FF6F65"/>
<path opacity="0.5" d="M283.099 164.335V225.078C283.099 228.996 282.315 232.132 281.14 232.132C279.964 232.132 279.18 228.996 279.18 225.078V164.335H283.099Z" fill="#FBFBFB"/>
<path d="M286.231 167.08V163.161C286.231 164.337 285.447 165.905 283.88 166.688C280.353 168.648 274.866 169.04 270.948 166.688C268.988 165.513 268.204 164.337 268.204 162.769V166.688C268.204 168.256 268.988 169.432 270.948 170.607C274.475 172.567 280.353 172.567 283.88 170.607C285.447 169.823 286.231 168.648 286.231 167.08Z" fill="#8BC3DE"/>
<path d="M283.487 159.241C287.014 161.201 287.406 164.728 283.879 166.687C280.352 168.647 274.865 169.038 270.947 166.687C267.42 164.728 267.028 161.201 270.555 159.241C274.082 157.282 279.96 157.282 283.487 159.241Z" fill="#BEE9F7"/>
<path d="M277.212 167.08C279.563 167.08 281.523 166.688 283.09 165.512C284.266 164.729 285.05 163.945 285.05 162.769C285.05 161.986 284.266 160.81 283.09 160.026C281.523 159.242 279.563 158.851 277.604 158.851C275.252 158.851 273.293 159.242 271.725 160.418C270.55 161.202 269.766 161.986 269.766 163.161C269.766 163.945 270.55 165.121 271.725 165.904C273.293 166.688 275.252 167.08 277.212 167.08Z" fill="#86C0DA"/>
<path d="M269.383 163.16C269.383 163.552 269.383 163.944 269.775 164.336C270.167 163.944 270.558 163.552 271.342 163.16C272.91 162.376 274.869 161.592 277.221 161.592C279.18 161.592 281.531 161.984 282.707 162.768C283.491 163.16 283.883 163.552 284.275 164.336C284.667 163.944 284.667 163.552 284.667 163.16C284.667 162.376 283.883 161.2 282.707 160.417C281.14 159.633 279.18 159.241 277.221 159.241C274.869 159.241 272.91 159.633 271.342 160.809C270.167 161.2 269.383 162.376 269.383 163.16Z" fill="#62A8CB"/>
<path d="M274.863 246.634L298.377 231.742V198.04L274.863 212.148V246.634Z" fill="url(#paint2_linear)"/>
<path d="M268.997 199.606C269.389 200.39 270.173 201.174 271.348 201.958C274.875 203.917 280.754 203.917 284.281 201.958C287.024 200.39 287.416 197.647 285.456 195.687L289.767 193.336L298.781 198.431L275.267 212.147L261.943 204.309L268.997 199.606Z" fill="#FCFBFB"/>
<path d="M274.875 246.635V244.284V230.176V224.689V213.717V211.757L203.159 170.217V172.568V182.757V186.676V202.352V204.703L274.875 246.635ZM273.308 213.717V223.906L204.335 183.933V173.744L273.308 213.717ZM273.308 243.5L204.335 203.528V189.42L273.308 229.392V243.5Z" fill="url(#paint3_linear)"/>
<path d="M185.518 207.445L175.329 201.567V186.283L185.518 192.161V207.445Z" fill="#DAE0F4"/>
<path d="M186.302 172.957C189.829 166.295 192.181 158.849 192.181 152.187C192.181 145.133 189.829 140.038 185.91 137.687L195.708 143.565C199.626 145.917 201.978 151.011 201.978 158.065C201.978 164.728 199.627 172.173 196.099 178.835C193.356 183.93 189.437 189.025 185.127 192.552L175.329 186.673C179.64 182.754 183.559 178.052 186.302 172.957Z" fill="#181A23"/>
<path d="M194.924 121.62C193.749 120.836 192.181 120.444 190.614 120.053C185.911 118.877 180.816 119.661 175.33 122.012L185.127 127.89C190.614 125.539 196.1 124.755 200.411 125.931C201.978 126.323 203.546 126.715 204.722 127.499L194.924 121.62Z" fill="#DAE0F4"/>
<path d="M185.127 142.782L175.329 136.903V122.012L185.127 127.89V142.782Z" fill="#DAE0F4"/>
<path d="M185.127 127.889C193.356 124.362 200.802 124.754 206.289 128.673C212.167 132.592 215.302 140.429 215.302 150.618C215.302 161.199 211.775 173.348 205.505 184.713C200.019 194.118 192.965 202.348 185.519 207.834V192.551C194.924 184.713 202.37 170.213 202.37 158.064C202.37 145.916 195.316 139.646 185.519 143.173L185.127 127.889Z" fill="#212430"/>
<path d="M204.332 128.285C203.157 127.501 201.981 127.893 200.414 128.285C200.414 128.285 200.022 128.285 200.022 128.677C197.67 129.853 195.711 132.596 194.927 134.947C194.143 136.515 194.143 138.082 194.143 139.258C194.143 141.217 194.927 142.785 196.103 143.177L198.062 144.353C196.887 143.569 196.103 142.393 196.103 140.434C196.103 138.866 196.495 137.69 196.887 136.123C198.062 133.38 200.022 131.028 201.981 129.852C201.981 129.852 202.373 129.853 202.373 129.461C203.941 128.677 205.116 128.677 206.292 129.461L204.332 128.285Z" fill="#BFCEDE"/>
<path d="M201.976 129.851C205.503 127.892 208.246 129.459 208.246 133.378C208.246 137.297 205.503 142 201.976 143.959C198.449 145.919 195.705 144.351 195.705 140.432C195.705 136.513 198.449 131.811 201.976 129.851Z" fill="#FDFDFD"/>
<path d="M201.981 132.594C204.332 131.419 205.9 132.202 205.9 134.946C205.9 137.297 203.94 140.432 201.981 142C199.63 143.175 198.062 142.391 198.062 139.648C198.062 136.905 200.021 133.77 201.981 132.594Z" fill="#BFCEDE"/>
<path d="M152.986 211.364V219.985C148.675 217.634 142.013 217.634 137.702 219.985V211.364C141.621 208.621 148.675 208.621 152.986 211.364Z" fill="#DAE0F4"/>
<path d="M152.986 211.364V219.985C148.675 217.634 142.013 217.634 137.702 219.985V211.364C141.621 208.621 148.675 208.621 152.986 211.364Z" fill="url(#paint4_linear)"/>
<path d="M137.706 211.365V219.595L121.246 229.392V220.771L137.706 211.365Z" fill="url(#paint5_linear)"/>
<path d="M121.246 220.771V229.392L111.449 223.906V215.284L121.246 220.771Z" fill="url(#paint6_linear)"/>
<path d="M177.684 225.473V234.095L152.995 219.595V211.365L177.684 225.473Z" fill="url(#paint7_linear)"/>
<path d="M180.807 230.177V238.798C180.807 237.231 179.632 235.663 177.672 234.487V225.866C180.024 226.65 180.807 228.609 180.807 230.177Z" fill="#DAE0F4"/>
<path d="M180.807 230.177V238.798C180.807 237.231 179.632 235.663 177.672 234.487V225.866C180.024 226.65 180.807 228.609 180.807 230.177Z" fill="url(#paint8_linear)"/>
<path d="M209.418 221.162V229.784C209.418 233.311 207.067 236.838 202.364 239.581V230.96C207.067 228.216 209.418 224.689 209.418 221.162Z" fill="#DAE0F4"/>
<path d="M209.418 221.162V229.784C209.418 233.311 207.067 236.838 202.364 239.581V230.96C207.067 228.216 209.418 224.689 209.418 221.162Z" fill="#DAE0F4"/>
<path d="M202.765 230.96V239.581L170.63 258V249.378L202.765 230.96Z" fill="#DAE0F4"/>
<path d="M202.373 211.365C211.778 216.852 211.778 225.473 202.373 230.96L170.63 249.379L161.225 243.892L177.684 234.487C181.995 232.135 181.995 228.217 177.684 225.473L152.995 211.365C148.684 209.014 142.022 209.014 137.711 211.365L121.252 220.771L111.847 215.284L143.59 196.865C152.995 191.379 168.279 191.379 177.684 196.865L202.373 211.365Z" fill="#DAE0F4"/>
<path d="M170.621 249.378V257.999L161.216 252.513V243.891L170.621 249.378Z" fill="url(#paint9_linear)"/>
<path d="M177.292 218.81L158.873 208.229V203.918L177.292 214.499V218.81Z" fill="url(#paint10_linear)"/>
<path d="M186.691 198.04L168.272 187.459C170.624 185.891 172.975 185.891 174.543 186.675L192.962 197.256C191.394 196.473 189.043 196.865 186.691 198.04Z" fill="#DAE0F4"/>
<path d="M192.967 197.258L174.549 186.677C174.549 186.677 174.94 186.677 174.94 187.069L192.967 197.258C193.359 197.258 193.359 197.65 192.967 197.258Z" fill="#ADADAD"/>
<path d="M177.292 214.498L158.873 203.917C158.873 199.607 160.832 194.904 163.968 191.377L182.386 201.958C179.251 205.485 177.292 210.579 177.292 214.498Z" fill="url(#paint11_linear)"/>
<path d="M182.39 201.958L163.971 191.377C165.146 189.809 166.714 188.634 168.281 187.458L186.7 198.039C185.133 199.215 183.565 200.39 182.39 201.958Z" fill="#DAE0F4"/>
<path d="M186.694 198.039C191.789 194.904 196.1 197.647 196.1 203.525V207.836L177.289 218.809V214.498C177.289 208.62 181.6 201.174 186.694 198.039Z" fill="url(#paint12_linear)"/>
<path d="M167.099 226.647L114.586 196.08V190.202L167.099 220.769V226.647Z" fill="#DAE0F4"/>
<path d="M167.101 220.769L114.587 190.201L163.574 161.985L216.087 192.552L167.101 220.769Z" fill="#F2F4FE"/>
<path d="M216.079 192.552V198.43L167.093 226.646V220.768L216.079 192.552Z" fill="url(#paint13_linear)"/>
<path d="M133.783 187.458C133.783 190.201 135.743 193.336 139.27 195.296C146.716 199.607 158.864 199.607 166.702 195.296C170.621 192.944 172.58 190.201 172.58 187.458V189.025V190.201C172.58 192.944 170.621 196.08 166.702 198.039C159.256 202.35 146.716 202.35 139.27 198.039C135.351 195.688 133.783 192.944 133.783 190.201V188.634V187.458Z" fill="#62A8CB"/>
<path d="M139.276 179.229C131.83 183.54 131.83 190.594 139.276 194.904C146.722 199.215 158.87 199.215 166.708 194.904C174.154 190.594 174.154 183.54 166.708 179.229C159.262 174.918 146.722 174.918 139.276 179.229Z" fill="#BEE9F7"/>
<path d="M159.268 188.241C158.876 187.457 158.876 186.674 158.876 185.498C158.876 184.714 158.484 183.538 158.092 182.755C157.308 181.187 155.741 180.403 153.781 180.011C152.214 179.62 150.646 179.619 149.079 180.795C148.295 181.187 147.903 181.971 147.903 182.755C147.903 183.146 147.903 183.93 147.903 184.322C145.943 184.322 142.808 183.538 143.2 186.282C143.2 187.065 143.592 187.849 143.984 188.241C143.984 189.025 143.984 189.809 144.768 190.592C146.335 191.768 147.511 191.768 149.47 191.768C151.822 191.376 154.173 191.376 156.524 191.376C159.268 190.984 160.051 189.417 159.268 188.241Z" fill="#1E4E7D"/>
<path d="M181.599 180.798L183.167 169.433C182.775 170.609 181.991 171.785 180.032 172.568C176.113 174.136 170.235 173.352 167.099 170.609C165.532 169.433 164.748 167.866 164.748 166.298L163.18 177.663C162.789 179.23 163.572 180.798 165.532 181.974C169.059 184.717 174.937 185.501 178.464 183.933C180.424 183.541 181.599 182.365 181.599 180.798Z" fill="#292B37"/>
<path d="M187.084 168.646L189.435 152.971C189.043 154.93 187.868 156.498 185.125 157.673C179.638 160.025 171.8 158.849 167.098 155.322C164.746 153.363 163.571 151.403 163.962 149.444L161.611 165.119C161.219 167.079 162.395 169.038 164.746 170.998C169.449 174.525 177.679 175.7 182.773 173.349C185.516 172.173 187.084 170.606 187.084 168.646Z" fill="#1C1E28"/>
<path d="M191.785 160.026L192.569 155.715C192.177 158.067 190.217 160.026 187.082 161.594C180.42 164.337 170.231 162.77 164.353 158.459C161.218 156.107 160.042 153.364 160.434 151.013L159.65 155.324C159.258 157.675 160.434 160.418 163.569 162.77C169.447 167.08 179.636 168.648 186.299 165.905C189.826 164.337 191.393 162.378 191.785 160.026Z" fill="url(#paint14_linear)"/>
<path d="M165.917 145.133C159.255 147.876 158.471 153.754 164.349 158.457C170.228 162.768 180.417 164.335 187.079 161.592C193.741 158.849 194.525 152.971 188.646 148.268C182.768 143.957 172.579 142.39 165.917 145.133Z" fill="#FDFDFD"/>
<path d="M195.308 88.7012C200.011 92.2281 199.619 96.9308 194.132 99.2821C188.646 101.633 180.808 100.458 176.106 96.9308C171.403 93.4038 171.795 88.7013 177.281 86.35C182.768 83.9987 190.605 85.1742 195.308 88.7012Z" fill="#383C48"/>
<path d="M189.426 155.324L198.832 94.5815C198.44 96.5409 197.264 98.1085 194.521 99.2842C189.035 101.636 181.197 100.46 176.494 96.9328C174.143 94.9734 172.967 93.0139 173.359 91.0545L163.954 151.797C163.562 153.757 164.737 155.716 167.089 157.676C171.791 161.203 180.021 162.378 185.116 160.027C187.467 158.851 189.035 157.284 189.426 155.324Z" fill="#292B37"/>
<path d="M194.123 93.0147L196.082 80.8661C196.082 82.0418 194.906 83.2175 193.339 83.6094C189.812 85.177 184.717 84.3932 181.974 82.0419C180.407 80.8662 179.623 79.6905 180.015 78.123L178.055 90.2716C178.055 91.4472 178.447 93.0148 180.015 94.1905C183.15 96.5418 188.244 97.3255 191.379 95.758C192.947 95.3661 193.731 94.1904 194.123 93.0147Z" fill="#292B37"/>
<path d="M182.369 75.378C178.842 76.9455 178.842 79.6888 181.585 82.0402C184.72 84.3916 189.815 85.1754 192.95 83.6078C196.477 82.0402 196.477 79.2969 193.733 76.9455C190.99 74.5941 185.896 74.2023 182.369 75.378Z" fill="#383C48"/>
<path d="M193.739 80.8658C193.347 81.6496 192.956 82.0416 191.78 82.4334C189.429 83.6091 185.51 82.8253 183.158 81.2577C182.375 80.4739 181.591 79.6901 181.591 78.9064C181.591 77.7307 181.983 76.947 183.55 76.1632C185.902 74.9876 189.821 75.7713 192.172 77.3388C193.739 78.9064 194.131 80.082 193.739 80.8658Z" fill="#292B37"/>
<path d="M193.739 80.8649C193.348 81.6487 192.956 82.0407 191.78 82.4326C189.429 83.6082 185.51 82.8244 183.158 81.2568C182.375 80.4731 181.591 79.6893 181.591 78.9055C181.983 78.1217 182.375 77.7298 183.55 77.338C185.902 76.1623 189.821 76.9461 192.172 78.5137C192.956 79.6894 193.348 80.473 193.739 80.8649Z" fill="#1A1121"/>
<g opacity="0.8">
<path opacity="0.8" d="M85.1983 137.689L82.4551 136.122L82.847 171.392L85.1983 172.959V137.689Z" fill="white"/>
<path opacity="0.5" d="M115.766 120.054L113.023 118.487L82.4553 136.122L85.1986 137.689L115.766 120.054Z" fill="white"/>
<path opacity="0.8" d="M85.1953 137.691V172.961L115.763 155.326V120.056L85.1953 137.691Z" fill="white"/>
</g>
<path d="M96.1625 151.404L92.6355 160.417L108.311 151.404L104.784 146.309L96.1625 151.404Z" fill="white"/>
<path d="M110.665 152.578L90.2869 164.335C89.895 164.335 89.895 164.335 89.895 164.335C89.895 164.335 89.895 163.943 89.895 163.551L97.3409 144.349V139.646C97.3409 139.254 97.7328 138.862 98.1247 138.47L103.219 135.335C103.611 134.943 104.003 135.335 104.003 135.727V140.43L111.449 151.011C111.449 151.011 111.449 151.403 111.449 151.794C111.057 152.186 111.057 152.186 110.665 152.578ZM91.4626 161.984L109.49 151.403L102.435 141.605C102.435 141.605 102.435 141.605 102.435 141.214V137.295L98.5166 139.646V143.565V143.957L91.4626 161.984Z" fill="white"/>
<path d="M95.7734 138.08V141.215L98.1248 140.039L102.827 136.904L105.179 135.728V132.593L95.7734 138.08Z" fill="white"/>
<g opacity="0.8">
<path opacity="0.8" d="M129.47 83.6057L126.727 82.0382L127.118 117.308L129.47 118.876V83.6057Z" fill="url(#paint15_linear)"/>
<path opacity="0.5" d="M160.038 65.9706L157.295 64.4031L126.728 82.0379L129.471 83.6055L160.038 65.9706Z" fill="url(#paint16_linear)"/>
<path opacity="0.8" d="M129.467 83.6072V118.877L160.034 101.242V65.9722L129.467 83.6072Z" fill="url(#paint17_linear)"/>
</g>
<path d="M147.503 102.025L146.719 100.458C146.719 100.458 146.719 100.849 146.327 100.849C145.935 101.633 145.151 102.417 144.759 102.809C144.368 103.201 143.976 103.201 143.584 103.201L143.192 102.809L142.8 105.16L147.503 102.025Z" fill="white"/>
<path d="M145.931 98.1065C145.147 97.7146 143.971 98.4983 143.579 99.674C142.796 100.85 143.187 102.025 143.971 102.417C144.755 102.809 145.931 102.025 146.323 100.85C147.106 99.6739 146.714 98.4983 145.931 98.1065ZM145.539 100.458C145.147 100.85 144.755 101.241 144.363 101.241C143.971 101.241 143.971 100.458 144.363 100.066C144.755 99.674 145.147 99.2821 145.539 99.2821C145.931 99.6739 145.931 100.066 145.539 100.458Z" fill="white"/>
<path d="M149.453 89.0915L147.102 90.659L148.277 94.1861C148.277 94.578 148.669 94.578 148.669 94.1861L150.237 93.0104C150.629 92.6185 150.629 92.6186 150.629 92.2267L149.453 89.0915Z" fill="white"/>
<path d="M145.146 84.3902L147.497 82.8225L146.713 79.6874C146.713 79.2955 146.322 79.2955 146.322 79.6874L144.754 80.863C144.362 81.2549 144.362 81.2549 144.362 81.6468L145.146 84.3902Z" fill="white"/>
<path d="M146.713 80.0783C146.713 79.6865 146.321 79.6865 146.321 80.0783L144.753 81.2539C144.362 81.6458 144.362 81.6459 144.362 82.0377V82.4296L146.713 80.0783Z" fill="white"/>
<path d="M150.632 89.4847C150.632 89.4847 150.632 89.8766 150.24 89.8766L146.713 93.0116H146.321C146.321 93.0116 146.321 92.6197 146.713 92.6197L150.24 89.4847C150.24 89.0928 150.632 89.0928 150.632 89.4847Z" fill="white"/>
<path d="M150.24 89.0917L147.889 81.6459C147.889 81.6459 147.497 81.254 147.497 81.6459L144.754 83.9972C144.754 83.9972 144.362 84.389 144.362 84.7809V85.1728C144.754 84.7809 144.754 84.781 145.146 84.3891C145.929 83.9972 146.713 83.9972 147.105 84.3891C147.497 84.781 147.497 85.5648 147.497 85.9566C147.497 86.7404 147.105 87.5242 146.713 87.9161C146.321 88.308 146.321 88.3079 145.929 88.6998L146.713 91.835C146.713 91.835 147.105 92.2268 147.105 91.835L149.848 89.4836C149.848 89.8755 150.24 89.4836 150.24 89.0917Z" fill="white"/>
<path d="M147.115 85.1745C146.723 84.3907 145.547 84.7826 144.763 85.9583C143.979 87.134 143.588 88.3097 143.979 89.0934C144.371 89.8772 145.547 89.4854 146.331 88.3097C147.115 87.134 147.506 85.5664 147.115 85.1745ZM145.939 87.5259C145.547 87.9178 145.155 88.3097 144.763 87.9178C144.371 87.5259 144.763 87.134 145.155 86.3502C145.547 85.9583 145.939 85.5664 146.331 85.9583C146.331 86.3502 146.331 87.134 145.939 87.5259Z" fill="white"/>
<path d="M147.108 98.8908C147.108 99.2827 147.108 99.2828 147.108 99.6746L152.202 94.9719L151.81 93.4044L147.108 97.7152C146.716 98.1071 147.108 98.4989 147.108 98.8908Z" fill="white"/>
<path d="M141.23 95.7536C141.23 93.7942 142.405 91.051 143.973 89.4834C143.973 89.4834 143.973 89.4834 143.581 89.0915C143.189 88.6996 143.189 87.9159 143.189 87.524V87.1321C142.013 88.3077 140.838 89.4834 140.054 91.0509C138.878 93.4022 138.095 95.7536 137.703 98.1049C137.703 100.064 138.095 104.375 142.013 103.983L142.405 102.024V101.632C142.405 100.848 142.405 100.456 142.797 99.6725C142.797 99.2806 143.189 99.2805 143.189 98.8886C142.405 98.8886 141.23 97.713 141.23 95.7536Z" fill="white"/>
<path d="M152.2 100.848C152.2 101.632 151.808 102.024 151.416 102.416L139.267 109.47C138.875 109.862 138.483 109.47 138.483 109.078C138.483 108.294 138.875 107.902 139.267 107.51L151.416 100.456C151.808 99.6726 152.2 100.064 152.2 100.848Z" fill="white"/>
<g opacity="0.8">
<path opacity="0.8" d="M77.7432 74.2024L75 72.6349V107.121L77.7432 108.689V74.2024Z" fill="url(#paint18_linear)"/>
<path opacity="0.5" d="M107.919 56.5675L105.175 55L75 72.6349L77.7432 74.2024L107.919 56.5675Z" fill="url(#paint19_linear)"/>
<path opacity="0.8" d="M77.7402 74.2038V108.69L107.916 91.055V56.5687L77.7402 74.2038Z" fill="url(#paint20_linear)"/>
</g>
<path d="M94.2055 69.1064C93.8136 69.8902 85.9758 84.7821 85.9758 90.2686C85.9758 95.3631 89.5028 97.7144 94.2055 94.9712C98.9082 92.2279 102.435 85.9577 102.435 80.8631C102.435 75.3767 94.5974 69.4983 94.2055 69.1064Z" fill="white"/>
<defs>
<linearGradient id="paint0_linear" x1="298.549" y1="238.59" x2="274.871" y2="238.59" gradientUnits="userSpaceOnUse">
<stop stop-color="#AABAD6"/>
<stop offset="1" stop-color="#96AAC9"/>
</linearGradient>
<linearGradient id="paint1_linear" x1="206.176" y1="188.27" x2="204.469" y2="188.27" gradientUnits="userSpaceOnUse">
<stop stop-color="#AABAD6"/>
<stop offset="1" stop-color="#96AAC9"/>
</linearGradient>
<linearGradient id="paint2_linear" x1="298.564" y1="222.449" x2="274.856" y2="222.449" gradientUnits="userSpaceOnUse">
<stop stop-color="#AABAD6"/>
<stop offset="1" stop-color="#96AAC9"/>
</linearGradient>
<linearGradient id="paint3_linear" x1="194.745" y1="230.877" x2="333.911" y2="160.764" gradientUnits="userSpaceOnUse">
<stop offset="0.00510204" stop-color="#E4E9F2"/>
<stop offset="0.2748" stop-color="#DFE5EF"/>
<stop offset="0.598" stop-color="#D0D9E8"/>
<stop offset="0.9475" stop-color="#B8C5DC"/>
<stop offset="1" stop-color="#B4C2DA"/>
</linearGradient>
<linearGradient id="paint4_linear" x1="137.514" y1="214.581" x2="152.936" y2="214.581" gradientUnits="userSpaceOnUse">
<stop stop-color="#AABAD6"/>
<stop offset="1" stop-color="#96AAC9"/>
</linearGradient>
<linearGradient id="paint5_linear" x1="121.068" y1="220.285" x2="137.543" y2="220.285" gradientUnits="userSpaceOnUse">
<stop stop-color="#AABAD6"/>
<stop offset="1" stop-color="#96AAC9"/>
</linearGradient>
<linearGradient id="paint6_linear" x1="111.578" y1="222.326" x2="121.091" y2="222.326" gradientUnits="userSpaceOnUse">
<stop stop-color="#AABAD6"/>
<stop offset="1" stop-color="#96AAC9"/>
</linearGradient>
<linearGradient id="paint7_linear" x1="152.92" y1="222.65" x2="177.695" y2="222.65" gradientUnits="userSpaceOnUse">
<stop stop-color="#AABAD6"/>
<stop offset="1" stop-color="#96AAC9"/>
</linearGradient>
<linearGradient id="paint8_linear" x1="177.659" y1="232.04" x2="180.898" y2="232.04" gradientUnits="userSpaceOnUse">
<stop stop-color="#AABAD6"/>
<stop offset="1" stop-color="#96AAC9"/>
</linearGradient>
<linearGradient id="paint9_linear" x1="161.261" y1="251.012" x2="170.774" y2="251.012" gradientUnits="userSpaceOnUse">
<stop stop-color="#AABAD6"/>
<stop offset="1" stop-color="#96AAC9"/>
</linearGradient>
<linearGradient id="paint10_linear" x1="159.039" y1="211.385" x2="177.362" y2="211.385" gradientUnits="userSpaceOnUse">
<stop stop-color="#AABAD6"/>
<stop offset="1" stop-color="#96AAC9"/>
</linearGradient>
<linearGradient id="paint11_linear" x1="159.039" y1="202.952" x2="182.44" y2="202.952" gradientUnits="userSpaceOnUse">
<stop stop-color="#AABAD6"/>
<stop offset="1" stop-color="#96AAC9"/>
</linearGradient>
<linearGradient id="paint12_linear" x1="177.347" y1="207.884" x2="196.3" y2="207.884" gradientUnits="userSpaceOnUse">
<stop stop-color="#AABAD6"/>
<stop offset="1" stop-color="#96AAC9"/>
</linearGradient>
<linearGradient id="paint13_linear" x1="166.949" y1="209.551" x2="216.112" y2="209.551" gradientUnits="userSpaceOnUse">
<stop stop-color="#AABAD6"/>
<stop offset="1" stop-color="#96AAC9"/>
</linearGradient>
<linearGradient id="paint14_linear" x1="159.798" y1="159.119" x2="192.476" y2="159.119" gradientUnits="userSpaceOnUse">
<stop stop-color="#AABAD6"/>
<stop offset="1" stop-color="#96AAC9"/>
</linearGradient>
<linearGradient id="paint15_linear" x1="105.72" y1="82.3451" x2="149.165" y2="117.462" gradientUnits="userSpaceOnUse">
<stop stop-color="#14DCFF"/>
<stop offset="0.288" stop-color="#0ED0FA"/>
<stop offset="1" stop-color="#00B1EF"/>
</linearGradient>
<linearGradient id="paint16_linear" x1="124.634" y1="58.9469" x2="168.079" y2="94.0634" gradientUnits="userSpaceOnUse">
<stop stop-color="#14DCFF"/>
<stop offset="0.288" stop-color="#0ED0FA"/>
<stop offset="1" stop-color="#00B1EF"/>
</linearGradient>
<linearGradient id="paint17_linear" x1="116.212" y1="69.364" x2="159.656" y2="104.48" gradientUnits="userSpaceOnUse">
<stop stop-color="#14DCFF"/>
<stop offset="0.288" stop-color="#0ED0FA"/>
<stop offset="1" stop-color="#00B1EF"/>
</linearGradient>
<linearGradient id="paint18_linear" x1="92.2103" y1="44.0101" x2="70.4918" y2="107.888" gradientUnits="userSpaceOnUse">
<stop stop-color="#14DCFF"/>
<stop offset="0.288" stop-color="#0ED0FA"/>
<stop offset="1" stop-color="#00B1EF"/>
</linearGradient>
<linearGradient id="paint19_linear" x1="97.7441" y1="45.8922" x2="76.026" y2="109.769" gradientUnits="userSpaceOnUse">
<stop stop-color="#14DCFF"/>
<stop offset="0.288" stop-color="#0ED0FA"/>
<stop offset="1" stop-color="#00B1EF"/>
</linearGradient>
<linearGradient id="paint20_linear" x1="104.438" y1="48.1697" x2="82.7199" y2="112.048" gradientUnits="userSpaceOnUse">
<stop stop-color="#14DCFF"/>
<stop offset="0.288" stop-color="#0ED0FA"/>
<stop offset="1" stop-color="#00B1EF"/>
</linearGradient>
</defs>
</svg>
