<svg width="44" height="44" viewBox="0 0 44 44" fill="none" xmlns="http://www.w3.org/2000/svg">
<path d="M13.6602 28.849H16.7244V16.6576H13.6602V28.849ZM25.9172 16.6576C23.2938 16.7012 22.0031 18.6032 21.8315 18.6895V16.6576H18.7673V28.849H21.8315V21.7373C21.8315 21.4765 22.4779 19.3879 24.8958 19.7054C26.1945 19.7897 26.8947 21.4982 26.9386 21.7373V28.849L29.9909 28.8629V20.4227C29.8832 19.2044 29.2707 16.7012 25.9172 16.6576ZM15.1923 12.5938C14.3464 12.5938 13.6602 13.2753 13.6602 14.1177C13.6602 14.96 14.3464 15.6416 15.1923 15.6416C16.0382 15.6416 16.7244 14.96 16.7244 14.1177C16.7244 13.2753 16.0382 12.5938 15.1923 12.5938Z" fill="#fff"/>
<path d="M43.2815 21.7373C43.2815 9.95457 33.6778 0.402344 21.8317 0.402344C9.98548 0.402344 0.381836 9.95457 0.381836 21.7373C0.381836 33.5201 9.98548 43.0723 21.8317 43.0723C33.6778 43.0723 43.2815 33.5201 43.2815 21.7373ZM2.33181 21.7373C2.33181 11.0252 11.0619 2.34188 21.8317 2.34188C32.6015 2.34188 41.3316 11.0252 41.3316 21.7373C41.3316 32.4495 32.6015 41.1328 21.8317 41.1328C11.0619 41.1328 2.33181 32.4495 2.33181 21.7373Z" fill="#fff"/>
</svg>
