<svg width="391" height="81" viewBox="0 0 391 81" fill="none" xmlns="http://www.w3.org/2000/svg">
<path d="M82.5471 1H74.1175H49.8609L0 80.9713H23.7979L30.6219 69.5591H57.2009L57.9177 80.9713H66.3474V81H82.5184C104.223 81 122 63.005 122 41.0144C122 18.995 104.252 1 82.5471 1ZM67.8956 63.2925H53.3302V48.1434H38.22V33.5692H53.3302V18.42H67.867V33.5692H82.9772V48.1434H67.867V63.2925H67.8956ZM81.2569 64.9023H72.7412V53.3751H74.4902H87.9661V28.6824H75.3791H74.2609H72.7412V17.1552H75.7805H82.0884C95.0482 17.1552 105.628 27.8775 105.628 41.0144C105.628 54.1225 95.0482 64.8735 82.0884 64.8735" fill="white"/>
<path d="M157.584 13.1055L169.25 44H163.191L159.668 34.5039H149.484L145.961 44H139.902L151.568 13.1055H157.584ZM154.576 19.4863L151.074 30.1855H158.078L154.576 19.4863ZM192.346 42.9902C191.758 43.2337 191.114 43.4486 190.412 43.6348C189.725 43.821 189.001 43.9785 188.242 44.1074C187.483 44.2363 186.71 44.3366 185.922 44.4082C185.148 44.4798 184.389 44.5156 183.645 44.5156C179.878 44.5156 177.027 43.6133 175.094 41.8086C173.174 39.9896 172.215 37.2109 172.215 33.4727C172.215 31.8112 172.408 30.2357 172.795 28.7461C173.182 27.2565 173.805 25.9531 174.664 24.8359C175.538 23.7044 176.676 22.8092 178.08 22.1504C179.498 21.4915 181.231 21.1621 183.279 21.1621C186.86 21.1621 189.531 22.1146 191.293 24.0195C193.055 25.9102 193.936 28.8034 193.936 32.6992V34.3965H178.059C178.087 35.3704 178.202 36.2298 178.402 36.9746C178.603 37.7194 178.932 38.3496 179.391 38.8652C179.863 39.3665 180.479 39.7533 181.238 40.0254C181.997 40.2832 182.95 40.4121 184.096 40.4121C185.098 40.4121 186.18 40.2904 187.34 40.0469C188.5 39.7891 189.71 39.4238 190.971 38.9512L192.346 42.9902ZM188.049 30.5723C187.949 27.0345 186.359 25.2656 183.279 25.2656C181.689 25.2656 180.479 25.724 179.648 26.6406C178.832 27.5573 178.331 28.8678 178.145 30.5723H188.049ZM205.838 25.4805C206.354 24.7214 206.833 24.0983 207.277 23.6113C207.707 23.1387 208.158 22.752 208.631 22.4512C209.104 22.1361 209.576 21.8854 210.049 21.6992C210.536 21.4987 211.023 21.3626 211.51 21.291C211.997 21.2051 212.477 21.1621 212.949 21.1621C213.35 21.1621 213.737 21.1908 214.109 21.248C214.496 21.291 214.854 21.3483 215.184 21.4199C215.141 21.821 215.083 22.2507 215.012 22.709C214.94 23.153 214.861 23.6042 214.775 24.0625C214.689 24.5208 214.589 24.972 214.475 25.416C214.374 25.86 214.267 26.2754 214.152 26.6621C213.336 26.5046 212.627 26.3757 212.025 26.2754C211.424 26.1608 210.887 26.1035 210.414 26.1035C209.97 26.1035 209.562 26.168 209.189 26.2969C208.831 26.4115 208.473 26.6191 208.115 26.9199C207.757 27.2207 207.385 27.6217 206.998 28.123C206.626 28.61 206.203 29.2259 205.73 29.9707V44H199.844V30.2285C199.844 29.3978 199.837 28.6243 199.822 27.9082C199.808 27.1777 199.779 26.4974 199.736 25.8672C199.693 25.2227 199.629 24.6139 199.543 24.041C199.457 23.4681 199.342 22.9095 199.199 22.3652C200.13 22.1217 201.054 21.8997 201.971 21.6992C202.902 21.4987 203.84 21.3197 204.785 21.1621C204.885 21.4629 204.979 21.7637 205.064 22.0645C205.15 22.3509 205.222 22.666 205.279 23.0098C205.337 23.3392 205.387 23.7044 205.43 24.1055C205.473 24.5065 205.516 24.9648 205.559 25.4805H205.838ZM239.203 13.0625V36.7168V37.6406C239.203 38.7578 239.239 39.7676 239.311 40.6699C239.382 41.5579 239.54 42.4603 239.783 43.377C239.325 43.5059 238.881 43.6276 238.451 43.7422C238.021 43.8424 237.592 43.9355 237.162 44.0215C236.747 44.1217 236.324 44.2077 235.895 44.2793C235.465 44.3652 235.014 44.444 234.541 44.5156C234.426 44.2148 234.326 43.9284 234.24 43.6562C234.169 43.3841 234.097 43.0905 234.025 42.7754C233.968 42.4603 233.918 42.1165 233.875 41.7441C233.832 41.3717 233.796 40.9349 233.768 40.4336H233.531C231.87 43.1549 229.521 44.5156 226.484 44.5156C224.98 44.5156 223.713 44.222 222.682 43.6348C221.65 43.0475 220.812 42.2598 220.168 41.2715C219.538 40.2689 219.079 39.1159 218.793 37.8125C218.521 36.4948 218.385 35.1055 218.385 33.6445C218.385 31.582 218.657 29.7773 219.201 28.2305C219.76 26.6693 220.54 25.3659 221.543 24.3203C222.546 23.2747 223.742 22.487 225.131 21.957C226.535 21.4271 228.081 21.1621 229.771 21.1621C230.387 21.1621 230.982 21.1908 231.555 21.248C232.142 21.3053 232.729 21.377 233.316 21.4629V13.0625H239.203ZM233.381 25.8887C232.235 25.6022 231.168 25.459 230.18 25.459C229.335 25.459 228.547 25.5736 227.816 25.8027C227.1 26.0319 226.477 26.4043 225.947 26.9199C225.417 27.4355 225.002 28.1016 224.701 28.918C224.415 29.7344 224.271 30.7298 224.271 31.9043C224.271 33.1217 224.314 34.2389 224.4 35.2559C224.501 36.2728 224.701 37.1536 225.002 37.8984C225.303 38.6289 225.732 39.2018 226.291 39.6172C226.85 40.0182 227.594 40.2188 228.525 40.2188C229.199 40.2188 229.786 40.0827 230.287 39.8105C230.803 39.5384 231.268 39.1589 231.684 38.6719C231.999 38.3281 232.292 37.9414 232.564 37.5117C232.837 37.0677 233.109 36.5951 233.381 36.0938V25.8887ZM255.896 21.1621C257.773 21.1621 259.398 21.4557 260.773 22.043C262.148 22.6302 263.28 23.4466 264.168 24.4922C265.07 25.5234 265.736 26.7552 266.166 28.1875C266.61 29.6055 266.832 31.1523 266.832 32.8281C266.832 34.5039 266.61 36.0579 266.166 37.4902C265.736 38.9225 265.07 40.1615 264.168 41.207C263.28 42.2383 262.148 43.0475 260.773 43.6348C259.398 44.222 257.773 44.5156 255.896 44.5156C254.02 44.5156 252.395 44.222 251.02 43.6348C249.645 43.0475 248.506 42.2383 247.604 41.207C246.715 40.1615 246.049 38.9225 245.605 37.4902C245.176 36.0579 244.961 34.5039 244.961 32.8281C244.961 31.1523 245.176 29.6055 245.605 28.1875C246.049 26.7552 246.715 25.5234 247.604 24.4922C248.506 23.4466 249.645 22.6302 251.02 22.043C252.395 21.4557 254.02 21.1621 255.896 21.1621ZM255.896 25.373C254.865 25.373 254.02 25.5664 253.361 25.9531C252.702 26.3398 252.187 26.8698 251.814 27.543C251.442 28.2161 251.184 29.0111 251.041 29.9277C250.912 30.8301 250.848 31.7969 250.848 32.8281C250.848 33.8737 250.912 34.8548 251.041 35.7715C251.184 36.6738 251.442 37.4616 251.814 38.1348C252.187 38.8079 252.702 39.3379 253.361 39.7246C254.02 40.1113 254.865 40.3047 255.896 40.3047C256.928 40.3047 257.773 40.1113 258.432 39.7246C259.09 39.3379 259.606 38.8079 259.979 38.1348C260.351 37.4616 260.602 36.6738 260.73 35.7715C260.874 34.8548 260.945 33.8737 260.945 32.8281C260.945 31.7969 260.874 30.8301 260.73 29.9277C260.602 29.0111 260.351 28.2161 259.979 27.543C259.606 26.8698 259.09 26.3398 258.432 25.9531C257.773 25.5664 256.928 25.373 255.896 25.373ZM289.971 43.1621C289.383 43.377 288.739 43.5703 288.037 43.7422C287.335 43.9141 286.619 44.0573 285.889 44.1719C285.173 44.2865 284.464 44.3724 283.762 44.4297C283.06 44.487 282.415 44.5156 281.828 44.5156C279.751 44.5156 277.997 44.2721 276.564 43.7852C275.132 43.2982 273.972 42.582 273.084 41.6367C272.21 40.6771 271.58 39.4954 271.193 38.0918C270.807 36.6882 270.613 35.0768 270.613 33.2578C270.613 31.3529 270.857 29.6484 271.344 28.1445C271.845 26.6406 272.59 25.373 273.578 24.3418C274.566 23.3105 275.798 22.5228 277.273 21.9785C278.749 21.4342 280.475 21.1621 282.451 21.1621C283.597 21.1621 284.736 21.2552 285.867 21.4414C286.999 21.6133 288.08 21.8496 289.111 22.1504L287.672 26.4043C286.812 26.1178 285.975 25.8887 285.158 25.7168C284.356 25.5449 283.54 25.459 282.709 25.459C281.606 25.459 280.661 25.6452 279.873 26.0176C279.1 26.3757 278.462 26.8841 277.961 27.543C277.46 28.1875 277.087 28.9609 276.844 29.8633C276.615 30.7656 276.5 31.7539 276.5 32.8281C276.5 35.3203 276.93 37.1751 277.789 38.3926C278.663 39.61 280.102 40.2188 282.107 40.2188C283.339 40.2188 284.471 40.0898 285.502 39.832C286.548 39.5742 287.586 39.2663 288.617 38.9082L289.971 43.1621Z" fill="white"/>
<path d="M151.72 69.344H143.44V77H141.16V60.2H143.44V67.376H151.72V60.2H154V77H151.72V69.344ZM167.34 70.76C167.34 70.136 167.236 69.544 167.028 68.984C166.836 68.424 166.556 67.936 166.188 67.52C165.836 67.104 165.412 66.776 164.916 66.536C164.436 66.28 163.908 66.152 163.332 66.152C162.068 66.152 161.084 66.568 160.38 67.4C159.676 68.232 159.324 69.336 159.324 70.712C159.324 71.336 159.42 71.936 159.612 72.512C159.82 73.072 160.1 73.568 160.452 74C160.82 74.416 161.244 74.752 161.724 75.008C162.22 75.248 162.756 75.368 163.332 75.368C163.956 75.368 164.516 75.256 165.012 75.032C165.508 74.808 165.924 74.496 166.26 74.096C166.612 73.68 166.876 73.192 167.052 72.632C167.244 72.072 167.34 71.448 167.34 70.76ZM157.116 70.76C157.116 69.752 157.276 68.848 157.596 68.048C157.916 67.232 158.348 66.544 158.892 65.984C159.452 65.424 160.108 64.992 160.86 64.688C161.628 64.384 162.452 64.232 163.332 64.232C164.196 64.232 165.004 64.384 165.756 64.688C166.524 64.992 167.188 65.424 167.748 65.984C168.308 66.544 168.748 67.224 169.068 68.024C169.388 68.824 169.548 69.72 169.548 70.712C169.548 71.704 169.388 72.608 169.068 73.424C168.764 74.224 168.332 74.912 167.772 75.488C167.212 76.064 166.548 76.512 165.78 76.832C165.028 77.136 164.212 77.288 163.332 77.288C162.436 77.288 161.604 77.128 160.836 76.808C160.084 76.488 159.428 76.04 158.868 75.464C158.324 74.888 157.892 74.2 157.572 73.4C157.268 72.6 157.116 71.72 157.116 70.76ZM174.508 66.608C174.956 65.936 175.516 65.376 176.188 64.928C176.876 64.464 177.668 64.232 178.564 64.232C179.556 64.232 180.364 64.472 180.988 64.952C181.612 65.416 182.06 66.056 182.332 66.872C182.828 66.136 183.412 65.512 184.084 65C184.772 64.488 185.62 64.232 186.628 64.232C187.3 64.232 187.884 64.344 188.38 64.568C188.892 64.792 189.316 65.112 189.652 65.528C189.988 65.928 190.236 66.416 190.396 66.992C190.572 67.552 190.66 68.176 190.66 68.864V77H188.5V69.032C188.5 68.168 188.3 67.472 187.9 66.944C187.5 66.4 186.948 66.128 186.244 66.128C185.876 66.128 185.524 66.2 185.188 66.344C184.852 66.488 184.532 66.688 184.228 66.944C183.924 67.184 183.636 67.472 183.364 67.808C183.092 68.128 182.844 68.464 182.62 68.816V77H180.46V69.032C180.46 68.168 180.26 67.472 179.86 66.944C179.46 66.4 178.908 66.128 178.204 66.128C177.852 66.128 177.508 66.2 177.172 66.344C176.836 66.472 176.508 66.656 176.188 66.896C175.884 67.136 175.596 67.416 175.324 67.736C175.052 68.056 174.804 68.392 174.58 68.744V77H172.42V64.52H174.508V66.608ZM195.749 71.648C195.893 72.816 196.301 73.728 196.973 74.384C197.645 75.04 198.533 75.368 199.637 75.368C200.357 75.368 201.005 75.296 201.581 75.152C202.157 74.992 202.709 74.792 203.237 74.552L203.741 76.4C203.165 76.672 202.517 76.888 201.797 77.048C201.077 77.208 200.269 77.288 199.373 77.288C198.477 77.288 197.669 77.144 196.949 76.856C196.229 76.552 195.613 76.128 195.101 75.584C194.605 75.024 194.221 74.344 193.949 73.544C193.677 72.728 193.541 71.8 193.541 70.76C193.541 69.832 193.677 68.968 193.949 68.168C194.221 67.368 194.605 66.68 195.101 66.104C195.597 65.512 196.189 65.056 196.877 64.736C197.565 64.4 198.333 64.232 199.181 64.232C200.077 64.232 200.861 64.384 201.533 64.688C202.205 64.992 202.765 65.408 203.213 65.936C203.661 66.464 203.997 67.08 204.221 67.784C204.445 68.488 204.557 69.232 204.557 70.016C204.557 70.576 204.533 71.12 204.485 71.648H195.749ZM199.133 66.104C198.189 66.104 197.413 66.424 196.805 67.064C196.213 67.704 195.853 68.648 195.725 69.896H202.565C202.565 68.68 202.261 67.744 201.653 67.088C201.045 66.432 200.205 66.104 199.133 66.104ZM225.431 69.344H217.151V77H214.871V60.2H217.151V67.376H225.431V60.2H227.711V77H225.431V69.344ZM233.155 71.648C233.299 72.816 233.707 73.728 234.379 74.384C235.051 75.04 235.939 75.368 237.043 75.368C237.763 75.368 238.411 75.296 238.987 75.152C239.563 74.992 240.115 74.792 240.643 74.552L241.147 76.4C240.571 76.672 239.923 76.888 239.203 77.048C238.483 77.208 237.675 77.288 236.779 77.288C235.883 77.288 235.075 77.144 234.355 76.856C233.635 76.552 233.019 76.128 232.507 75.584C232.011 75.024 231.627 74.344 231.355 73.544C231.083 72.728 230.947 71.8 230.947 70.76C230.947 69.832 231.083 68.968 231.355 68.168C231.627 67.368 232.011 66.68 232.507 66.104C233.003 65.512 233.595 65.056 234.283 64.736C234.971 64.4 235.739 64.232 236.587 64.232C237.483 64.232 238.267 64.384 238.939 64.688C239.611 64.992 240.171 65.408 240.619 65.936C241.067 66.464 241.403 67.08 241.627 67.784C241.851 68.488 241.963 69.232 241.963 70.016C241.963 70.576 241.939 71.12 241.891 71.648H233.155ZM236.539 66.104C235.595 66.104 234.819 66.424 234.211 67.064C233.619 67.704 233.259 68.648 233.131 69.896H239.971C239.971 68.68 239.667 67.744 239.059 67.088C238.451 66.432 237.611 66.104 236.539 66.104ZM244.002 70.832C244.002 69.904 244.146 69.04 244.434 68.24C244.722 67.424 245.122 66.72 245.634 66.128C246.162 65.536 246.786 65.072 247.506 64.736C248.242 64.4 249.042 64.232 249.906 64.232C250.626 64.232 251.274 64.36 251.85 64.616C252.442 64.856 252.954 65.16 253.386 65.528V64.52H255.354V73.976C255.354 74.584 255.498 74.984 255.786 75.176C256.09 75.352 256.418 75.44 256.77 75.44L256.314 77.12C254.778 77.12 253.85 76.496 253.53 75.248C253.338 75.504 253.114 75.76 252.858 76.016C252.618 76.256 252.338 76.472 252.018 76.664C251.698 76.856 251.338 77.008 250.938 77.12C250.538 77.232 250.098 77.288 249.618 77.288C248.834 77.288 248.098 77.136 247.41 76.832C246.738 76.528 246.146 76.096 245.634 75.536C245.138 74.976 244.738 74.304 244.434 73.52C244.146 72.72 244.002 71.824 244.002 70.832ZM250.098 75.368C250.706 75.368 251.282 75.224 251.826 74.936C252.37 74.648 252.826 74.272 253.194 73.808V67.112C252.762 66.808 252.282 66.568 251.754 66.392C251.242 66.2 250.698 66.104 250.122 66.104C249.546 66.104 249.018 66.216 248.538 66.44C248.058 66.664 247.642 66.984 247.29 67.4C246.954 67.8 246.69 68.288 246.498 68.864C246.306 69.44 246.21 70.072 246.21 70.76C246.21 71.432 246.306 72.056 246.498 72.632C246.69 73.192 246.962 73.68 247.314 74.096C247.666 74.496 248.074 74.808 248.538 75.032C249.018 75.256 249.538 75.368 250.098 75.368ZM261.694 72.872C261.694 73.736 261.87 74.376 262.222 74.792C262.59 75.208 263.094 75.416 263.734 75.416C264.038 75.416 264.334 75.384 264.622 75.32C264.91 75.24 265.166 75.152 265.39 75.056L265.918 76.808C265.63 76.936 265.27 77.048 264.838 77.144C264.422 77.24 263.958 77.288 263.446 77.288C262.886 77.288 262.366 77.208 261.886 77.048C261.422 76.888 261.014 76.64 260.662 76.304C260.31 75.968 260.03 75.536 259.822 75.008C259.63 74.48 259.534 73.84 259.534 73.088V59.24H261.694V72.872ZM268.209 61.04H269.865V64.976H273.321V66.848H269.865V72.872C269.865 73.336 269.913 73.728 270.009 74.048C270.121 74.368 270.265 74.624 270.441 74.816C270.617 75.008 270.825 75.152 271.065 75.248C271.321 75.328 271.585 75.368 271.857 75.368C272.257 75.368 272.633 75.304 272.985 75.176C273.337 75.048 273.673 74.896 273.993 74.72L274.593 76.448C274.273 76.64 273.841 76.824 273.297 77C272.753 77.192 272.185 77.288 271.593 77.288C270.393 77.288 269.441 76.896 268.737 76.112C268.049 75.328 267.705 74.192 267.705 72.704V66.848H265.545V64.976H267.753L268.209 61.04ZM278.924 66.512C279.372 65.856 279.932 65.312 280.604 64.88C281.292 64.448 282.108 64.232 283.052 64.232C284.46 64.232 285.508 64.656 286.196 65.504C286.9 66.352 287.252 67.472 287.252 68.864V77H285.092V69.104C285.092 68.192 284.884 67.472 284.468 66.944C284.068 66.4 283.484 66.128 282.716 66.128C282.348 66.128 281.98 66.2 281.612 66.344C281.26 66.472 280.924 66.656 280.604 66.896C280.284 67.136 279.98 67.416 279.692 67.736C279.404 68.056 279.148 68.392 278.924 68.744V77H276.764V59.24H278.924V66.512Z" fill="white"/>
</svg>
