<svg width="44" height="44" viewBox="0 0 44 44" fill="#5c5c5c" xmlns="http://www.w3.org/2000/svg">
<path d="M31.7147 17.173C31.031 17.4554 30.3024 17.6426 29.5429 17.7335C30.3243 17.2942 30.9207 16.6039 31.201 15.7718C30.4725 16.1808 29.6681 16.4697 28.8109 16.6309C28.1192 15.9374 27.1332 15.5078 26.0577 15.5078C23.9709 15.5078 22.2909 17.1027 22.2909 19.0579C22.2909 19.3392 22.3162 19.6097 22.3783 19.8672C19.2447 19.7233 16.4719 18.3091 14.6092 16.1549C14.284 16.6861 14.0933 17.2942 14.0933 17.9488C14.0933 19.178 14.7655 20.2675 15.7675 20.8983C15.1619 20.8875 14.5678 20.722 14.0645 20.4612C14.0645 20.472 14.0645 20.4861 14.0645 20.5002C14.0645 22.2249 15.3711 23.6575 17.0844 23.9875C16.7775 24.0665 16.4432 24.1043 16.0961 24.1043C15.8548 24.1043 15.6112 24.0913 15.3825 24.0437C15.8709 25.4493 17.2567 26.4826 18.9045 26.5161C17.6221 27.4607 15.9939 28.0298 14.2311 28.0298C13.922 28.0298 13.6256 28.0168 13.3291 27.9811C14.9987 28.995 16.9775 29.5738 19.1114 29.5738C26.0473 29.5738 29.8394 24.1638 29.8394 19.4744C29.8394 19.3175 29.8336 19.1661 29.8256 19.0157C30.5736 18.5158 31.2022 17.8915 31.7147 17.173Z" fill="#5c5c5c"/>
<path d="M43.1546 21.7373C43.1546 9.95457 33.5509 0.402344 21.7047 0.402344C9.85853 0.402344 0.254883 9.95457 0.254883 21.7373C0.254883 33.5201 9.85853 43.0723 21.7047 43.0723C33.5509 43.0723 43.1546 33.5201 43.1546 21.7373ZM2.20486 21.7373C2.20486 11.0252 10.9349 2.34188 21.7047 2.34188C32.4745 2.34188 41.2046 11.0252 41.2046 21.7373C41.2046 32.4495 32.4745 41.1328 21.7047 41.1328C10.9349 41.1328 2.20486 32.4495 2.20486 21.7373Z" fill="#5c5c5c"/>
</svg>
